%FSLAX45Y45*%
G04 Gerber Fmt 4.5, Leading zero omitted, Abs format (unit mm)*
G04 Created by KiCad (PCBNEW (6.0.5)) date 2025-02-02 15:21:16*
%MOMM*%
%LPD*%
G01*
G04 APERTURE LIST*
%TA.AperFunction,Profile*%
%ADD10C,0.100000*%
%TD*%
%ADD11C,0.200000*%
%ADD12C,0.040000*%
%ADD13C,0.070000*%
%ADD14C,0.080000*%
%ADD15C,0.100000*%
%ADD16C,0.110000*%
%ADD17C,0.170000*%
G04 APERTURE END LIST*
D10*
X7835900Y-7299960D02*
X18826480Y-7299960D01*
X18826480Y-7299960D02*
X18826480Y-15516860D01*
X18826480Y-15516860D02*
X7835900Y-15516860D01*
X7835900Y-15516860D02*
X7835900Y-7299960D01*
D11*
D12*
X9169720Y-8676960D02*
X9209720Y-8716960D01*
X9209720Y-8676960D02*
X9169720Y-8716960D01*
X9169720Y-9035100D02*
X9209720Y-9075100D01*
X9209720Y-9035100D02*
X9169720Y-9075100D01*
X9870760Y-11016300D02*
X9910760Y-11056300D01*
X9910760Y-11016300D02*
X9870760Y-11056300D01*
X9913940Y-11399840D02*
X9953940Y-11439840D01*
X9953940Y-11399840D02*
X9913940Y-11439840D01*
X11044240Y-10193340D02*
X11084240Y-10233340D01*
X11084240Y-10193340D02*
X11044240Y-10233340D01*
X11648760Y-13599480D02*
X11688760Y-13639480D01*
X11688760Y-13599480D02*
X11648760Y-13639480D01*
X11653840Y-13475020D02*
X11693840Y-13515020D01*
X11693840Y-13475020D02*
X11653840Y-13515020D01*
X12166920Y-10960420D02*
X12206920Y-11000420D01*
X12206920Y-10960420D02*
X12166920Y-11000420D01*
X12184751Y-11389680D02*
X12224751Y-11429680D01*
X12224751Y-11389680D02*
X12184751Y-11429680D01*
X12954320Y-9205280D02*
X12994320Y-9245280D01*
X12994320Y-9205280D02*
X12954320Y-9245280D01*
X12954320Y-9619300D02*
X12994320Y-9659300D01*
X12994320Y-9619300D02*
X12954320Y-9659300D01*
X13162600Y-9205280D02*
X13202600Y-9245280D01*
X13202600Y-9205280D02*
X13162600Y-9245280D01*
X13162600Y-9619300D02*
X13202600Y-9659300D01*
X13202600Y-9619300D02*
X13162600Y-9659300D01*
X13528360Y-12746040D02*
X13568360Y-12786040D01*
X13568360Y-12746040D02*
X13528360Y-12786040D01*
X13762040Y-10132380D02*
X13802040Y-10172380D01*
X13802040Y-10132380D02*
X13762040Y-10172380D01*
X13762040Y-10261920D02*
X13802040Y-10301920D01*
X13802040Y-10261920D02*
X13762040Y-10301920D01*
X14026200Y-10427020D02*
X14066200Y-10467020D01*
X14066200Y-10427020D02*
X14026200Y-10467020D01*
X14993940Y-9588820D02*
X15033940Y-9628820D01*
X15033940Y-9588820D02*
X14993940Y-9628820D01*
X14999020Y-9728520D02*
X15039020Y-9768520D01*
X15039020Y-9728520D02*
X14999020Y-9768520D01*
X15052360Y-13723940D02*
X15092360Y-13763940D01*
X15092360Y-13723940D02*
X15052360Y-13763940D01*
X15425740Y-9624380D02*
X15465740Y-9664380D01*
X15465740Y-9624380D02*
X15425740Y-9664380D01*
X15430820Y-9738680D02*
X15470820Y-9778680D01*
X15470820Y-9738680D02*
X15430820Y-9778680D01*
X15471460Y-13096560D02*
X15511460Y-13136560D01*
X15511460Y-13096560D02*
X15471460Y-13136560D01*
X15959140Y-14038900D02*
X15999140Y-14078900D01*
X15999140Y-14038900D02*
X15959140Y-14078900D01*
X16175040Y-13144820D02*
X16215040Y-13184820D01*
X16215040Y-13144820D02*
X16175040Y-13184820D01*
X16523020Y-14498640D02*
X16563020Y-14538640D01*
X16563020Y-14498640D02*
X16523020Y-14538640D01*
X16896400Y-13589320D02*
X16936400Y-13629320D01*
X16936400Y-13589320D02*
X16896400Y-13629320D01*
X17272320Y-13584240D02*
X17312320Y-13624240D01*
X17312320Y-13584240D02*
X17272320Y-13624240D01*
X17513620Y-13734100D02*
X17553620Y-13774100D01*
X17553620Y-13734100D02*
X17513620Y-13774100D01*
D13*
X8556700Y-12895580D02*
G75*
G03*
X8556700Y-12895580I-35000J0D01*
G01*
X8556700Y-13657580D02*
G75*
G03*
X8556700Y-13657580I-35000J0D01*
G01*
X8759900Y-9316720D02*
G75*
G03*
X8759900Y-9316720I-35000J0D01*
G01*
X8759900Y-10078720D02*
G75*
G03*
X8759900Y-10078720I-35000J0D01*
G01*
X9544760Y-9192260D02*
G75*
G03*
X9544760Y-9192260I-35000J0D01*
G01*
X10306760Y-9192260D02*
G75*
G03*
X10306760Y-9192260I-35000J0D01*
G01*
X10454080Y-12979400D02*
G75*
G03*
X10454080Y-12979400I-35000J0D01*
G01*
X10454080Y-13741400D02*
G75*
G03*
X10454080Y-13741400I-35000J0D01*
G01*
X10984940Y-9192260D02*
G75*
G03*
X10984940Y-9192260I-35000J0D01*
G01*
X11561520Y-14673580D02*
G75*
G03*
X11561520Y-14673580I-35000J0D01*
G01*
X11746940Y-9192260D02*
G75*
G03*
X11746940Y-9192260I-35000J0D01*
G01*
X12323520Y-14673580D02*
G75*
G03*
X12323520Y-14673580I-35000J0D01*
G01*
X12628320Y-9641840D02*
G75*
G03*
X12628320Y-9641840I-35000J0D01*
G01*
X12628320Y-10403840D02*
G75*
G03*
X12628320Y-10403840I-35000J0D01*
G01*
X14121840Y-14698980D02*
G75*
G03*
X14121840Y-14698980I-35000J0D01*
G01*
X14883840Y-14698980D02*
G75*
G03*
X14883840Y-14698980I-35000J0D01*
G01*
X15081960Y-12768580D02*
G75*
G03*
X15081960Y-12768580I-35000J0D01*
G01*
X15282620Y-13251180D02*
G75*
G03*
X15282620Y-13251180I-35000J0D01*
G01*
X15282620Y-14013180D02*
G75*
G03*
X15282620Y-14013180I-35000J0D01*
G01*
X15843960Y-12768580D02*
G75*
G03*
X15843960Y-12768580I-35000J0D01*
G01*
X16092880Y-10236200D02*
G75*
G03*
X16092880Y-10236200I-35000J0D01*
G01*
X16854880Y-10236200D02*
G75*
G03*
X16854880Y-10236200I-35000J0D01*
G01*
D14*
X8496300Y-11999600D02*
X8496300Y-12079600D01*
X8456300Y-12039600D02*
X8536300Y-12039600D01*
X8496300Y-12249600D02*
X8496300Y-12329600D01*
X8456300Y-12289600D02*
X8536300Y-12289600D01*
X8531860Y-10878920D02*
X8531860Y-10958920D01*
X8491860Y-10918920D02*
X8571860Y-10918920D01*
X8531860Y-11128920D02*
X8531860Y-11208920D01*
X8491860Y-11168920D02*
X8571860Y-11168920D01*
X9096740Y-11618100D02*
X9096740Y-11698100D01*
X9056740Y-11658100D02*
X9136740Y-11658100D01*
X9096740Y-11872100D02*
X9096740Y-11952100D01*
X9056740Y-11912100D02*
X9136740Y-11912100D01*
X9096740Y-12126100D02*
X9096740Y-12206100D01*
X9056740Y-12166100D02*
X9136740Y-12166100D01*
X9096740Y-12380100D02*
X9096740Y-12460100D01*
X9056740Y-12420100D02*
X9136740Y-12420100D01*
X9096740Y-12634100D02*
X9096740Y-12714100D01*
X9056740Y-12674100D02*
X9136740Y-12674100D01*
X9096740Y-12888100D02*
X9096740Y-12968100D01*
X9056740Y-12928100D02*
X9136740Y-12928100D01*
X9096740Y-13142100D02*
X9096740Y-13222100D01*
X9056740Y-13182100D02*
X9136740Y-13182100D01*
X9392380Y-11148700D02*
X9392380Y-11228700D01*
X9352380Y-11188700D02*
X9432380Y-11188700D01*
X9408160Y-9868000D02*
X9408160Y-9948000D01*
X9368160Y-9908000D02*
X9448160Y-9908000D01*
X9408160Y-10118000D02*
X9408160Y-10198000D01*
X9368160Y-10158000D02*
X9448160Y-10158000D01*
X9440640Y-13960480D02*
X9440640Y-14040480D01*
X9400640Y-14000480D02*
X9480640Y-14000480D01*
X9642380Y-11148700D02*
X9642380Y-11228700D01*
X9602380Y-11188700D02*
X9682380Y-11188700D01*
X9690640Y-13960480D02*
X9690640Y-14040480D01*
X9650640Y-14000480D02*
X9730640Y-14000480D01*
X9858740Y-11618100D02*
X9858740Y-11698100D01*
X9818740Y-11658100D02*
X9898740Y-11658100D01*
X9858740Y-11872100D02*
X9858740Y-11952100D01*
X9818740Y-11912100D02*
X9898740Y-11912100D01*
X9858740Y-12126100D02*
X9858740Y-12206100D01*
X9818740Y-12166100D02*
X9898740Y-12166100D01*
X9858740Y-12380100D02*
X9858740Y-12460100D01*
X9818740Y-12420100D02*
X9898740Y-12420100D01*
X9858740Y-12634100D02*
X9858740Y-12714100D01*
X9818740Y-12674100D02*
X9898740Y-12674100D01*
X9858740Y-12888100D02*
X9858740Y-12968100D01*
X9818740Y-12928100D02*
X9898740Y-12928100D01*
X9858740Y-13142100D02*
X9858740Y-13222100D01*
X9818740Y-13182100D02*
X9898740Y-13182100D01*
X9943600Y-9671960D02*
X9943600Y-9751960D01*
X9903600Y-9711960D02*
X9983600Y-9711960D01*
X9943600Y-10433960D02*
X9943600Y-10513960D01*
X9903600Y-10473960D02*
X9983600Y-10473960D01*
X10197600Y-9671960D02*
X10197600Y-9751960D01*
X10157600Y-9711960D02*
X10237600Y-9711960D01*
X10197600Y-10433960D02*
X10197600Y-10513960D01*
X10157600Y-10473960D02*
X10237600Y-10473960D01*
X10429240Y-11160320D02*
X10429240Y-11240320D01*
X10389240Y-11200320D02*
X10469240Y-11200320D01*
X10429240Y-11410320D02*
X10429240Y-11490320D01*
X10389240Y-11450320D02*
X10469240Y-11450320D01*
X10451600Y-9671960D02*
X10451600Y-9751960D01*
X10411600Y-9711960D02*
X10491600Y-9711960D01*
X10451600Y-10433960D02*
X10451600Y-10513960D01*
X10411600Y-10473960D02*
X10491600Y-10473960D01*
X10461720Y-14097640D02*
X10461720Y-14177640D01*
X10421720Y-14137640D02*
X10501720Y-14137640D01*
X10467340Y-12131680D02*
X10467340Y-12211680D01*
X10427340Y-12171680D02*
X10507340Y-12171680D01*
X10467340Y-12381680D02*
X10467340Y-12461680D01*
X10427340Y-12421680D02*
X10507340Y-12421680D01*
X10705600Y-9671960D02*
X10705600Y-9751960D01*
X10665600Y-9711960D02*
X10745600Y-9711960D01*
X10705600Y-10433960D02*
X10705600Y-10513960D01*
X10665600Y-10473960D02*
X10745600Y-10473960D01*
X10711720Y-14097640D02*
X10711720Y-14177640D01*
X10671720Y-14137640D02*
X10751720Y-14137640D01*
X10959600Y-9671960D02*
X10959600Y-9751960D01*
X10919600Y-9711960D02*
X10999600Y-9711960D01*
X10959600Y-10433960D02*
X10959600Y-10513960D01*
X10919600Y-10473960D02*
X10999600Y-10473960D01*
X11060160Y-11613020D02*
X11060160Y-11693020D01*
X11020160Y-11653020D02*
X11100160Y-11653020D01*
X11060160Y-11867020D02*
X11060160Y-11947020D01*
X11020160Y-11907020D02*
X11100160Y-11907020D01*
X11060160Y-12121020D02*
X11060160Y-12201020D01*
X11020160Y-12161020D02*
X11100160Y-12161020D01*
X11060160Y-12375020D02*
X11060160Y-12455020D01*
X11020160Y-12415020D02*
X11100160Y-12415020D01*
X11060160Y-12629020D02*
X11060160Y-12709020D01*
X11020160Y-12669020D02*
X11100160Y-12669020D01*
X11060160Y-12883020D02*
X11060160Y-12963020D01*
X11020160Y-12923020D02*
X11100160Y-12923020D01*
X11060160Y-13137020D02*
X11060160Y-13217020D01*
X11020160Y-13177020D02*
X11100160Y-13177020D01*
X11213600Y-9671960D02*
X11213600Y-9751960D01*
X11173600Y-9711960D02*
X11253600Y-9711960D01*
X11213600Y-10433960D02*
X11213600Y-10513960D01*
X11173600Y-10473960D02*
X11253600Y-10473960D01*
X11221720Y-13988420D02*
X11221720Y-14068420D01*
X11181720Y-14028420D02*
X11261720Y-14028420D01*
X11353260Y-11120760D02*
X11353260Y-11200760D01*
X11313260Y-11160760D02*
X11393260Y-11160760D01*
X11467600Y-9671960D02*
X11467600Y-9751960D01*
X11427600Y-9711960D02*
X11507600Y-9711960D01*
X11467600Y-10433960D02*
X11467600Y-10513960D01*
X11427600Y-10473960D02*
X11507600Y-10473960D01*
X11471720Y-13988420D02*
X11471720Y-14068420D01*
X11431720Y-14028420D02*
X11511720Y-14028420D01*
X11603260Y-11120760D02*
X11603260Y-11200760D01*
X11563260Y-11160760D02*
X11643260Y-11160760D01*
X11822160Y-11613020D02*
X11822160Y-11693020D01*
X11782160Y-11653020D02*
X11862160Y-11653020D01*
X11822160Y-11867020D02*
X11822160Y-11947020D01*
X11782160Y-11907020D02*
X11862160Y-11907020D01*
X11822160Y-12121020D02*
X11822160Y-12201020D01*
X11782160Y-12161020D02*
X11862160Y-12161020D01*
X11822160Y-12375020D02*
X11822160Y-12455020D01*
X11782160Y-12415020D02*
X11862160Y-12415020D01*
X11822160Y-12629020D02*
X11822160Y-12709020D01*
X11782160Y-12669020D02*
X11862160Y-12669020D01*
X11822160Y-12883020D02*
X11822160Y-12963020D01*
X11782160Y-12923020D02*
X11862160Y-12923020D01*
X11822160Y-13137020D02*
X11822160Y-13217020D01*
X11782160Y-13177020D02*
X11862160Y-13177020D01*
X12194540Y-13398600D02*
X12194540Y-13478600D01*
X12154540Y-13438600D02*
X12234540Y-13438600D01*
X12194540Y-13648600D02*
X12194540Y-13728600D01*
X12154540Y-13688600D02*
X12234540Y-13688600D01*
X12455620Y-12083420D02*
X12455620Y-12163420D01*
X12415620Y-12123420D02*
X12495620Y-12123420D01*
X12455620Y-12333420D02*
X12455620Y-12413420D01*
X12415620Y-12373420D02*
X12495620Y-12373420D01*
X12616180Y-10958251D02*
X12616180Y-11038251D01*
X12576180Y-10998251D02*
X12656180Y-10998251D01*
X12616180Y-11208251D02*
X12616180Y-11288251D01*
X12576180Y-11248251D02*
X12656180Y-11248251D01*
X12632920Y-13220340D02*
X12632920Y-13300340D01*
X12592920Y-13260340D02*
X12672920Y-13260340D01*
X12632920Y-13982340D02*
X12632920Y-14062340D01*
X12592920Y-14022340D02*
X12672920Y-14022340D01*
X12886920Y-13220340D02*
X12886920Y-13300340D01*
X12846920Y-13260340D02*
X12926920Y-13260340D01*
X12886920Y-13982340D02*
X12886920Y-14062340D01*
X12846920Y-14022340D02*
X12926920Y-14022340D01*
X13140920Y-13220340D02*
X13140920Y-13300340D01*
X13100920Y-13260340D02*
X13180920Y-13260340D01*
X13140920Y-13982340D02*
X13140920Y-14062340D01*
X13100920Y-14022340D02*
X13180920Y-14022340D01*
X13394920Y-13220340D02*
X13394920Y-13300340D01*
X13354920Y-13260340D02*
X13434920Y-13260340D01*
X13394920Y-13982340D02*
X13394920Y-14062340D01*
X13354920Y-14022340D02*
X13434920Y-14022340D01*
X13464000Y-12289160D02*
X13464000Y-12369160D01*
X13424000Y-12329160D02*
X13504000Y-12329160D01*
X13508720Y-9771520D02*
X13508720Y-9851520D01*
X13468720Y-9811520D02*
X13548720Y-9811520D01*
X13508720Y-10025520D02*
X13508720Y-10105520D01*
X13468720Y-10065520D02*
X13548720Y-10065520D01*
X13508720Y-10279520D02*
X13508720Y-10359520D01*
X13468720Y-10319520D02*
X13548720Y-10319520D01*
X13508720Y-10533520D02*
X13508720Y-10613520D01*
X13468720Y-10573520D02*
X13548720Y-10573520D01*
X13508720Y-10787520D02*
X13508720Y-10867520D01*
X13468720Y-10827520D02*
X13548720Y-10827520D01*
X13508720Y-11041520D02*
X13508720Y-11121520D01*
X13468720Y-11081520D02*
X13548720Y-11081520D01*
X13508720Y-11295520D02*
X13508720Y-11375520D01*
X13468720Y-11335520D02*
X13548720Y-11335520D01*
X13648920Y-13220340D02*
X13648920Y-13300340D01*
X13608920Y-13260340D02*
X13688920Y-13260340D01*
X13648920Y-13982340D02*
X13648920Y-14062340D01*
X13608920Y-14022340D02*
X13688920Y-14022340D01*
X13714000Y-12289160D02*
X13714000Y-12369160D01*
X13674000Y-12329160D02*
X13754000Y-12329160D01*
X13885640Y-9284340D02*
X13885640Y-9364340D01*
X13845640Y-9324340D02*
X13925640Y-9324340D01*
X13902920Y-13220340D02*
X13902920Y-13300340D01*
X13862920Y-13260340D02*
X13942920Y-13260340D01*
X13902920Y-13982340D02*
X13902920Y-14062340D01*
X13862920Y-14022340D02*
X13942920Y-14022340D01*
X14135640Y-9284340D02*
X14135640Y-9364340D01*
X14095640Y-9324340D02*
X14175640Y-9324340D01*
X14156920Y-13220340D02*
X14156920Y-13300340D01*
X14116920Y-13260340D02*
X14196920Y-13260340D01*
X14156920Y-13982340D02*
X14156920Y-14062340D01*
X14116920Y-14022340D02*
X14196920Y-14022340D01*
X14270720Y-9771520D02*
X14270720Y-9851520D01*
X14230720Y-9811520D02*
X14310720Y-9811520D01*
X14270720Y-10025520D02*
X14270720Y-10105520D01*
X14230720Y-10065520D02*
X14310720Y-10065520D01*
X14270720Y-10279520D02*
X14270720Y-10359520D01*
X14230720Y-10319520D02*
X14310720Y-10319520D01*
X14270720Y-10533520D02*
X14270720Y-10613520D01*
X14230720Y-10573520D02*
X14310720Y-10573520D01*
X14270720Y-10787520D02*
X14270720Y-10867520D01*
X14230720Y-10827520D02*
X14310720Y-10827520D01*
X14270720Y-11041520D02*
X14270720Y-11121520D01*
X14230720Y-11081520D02*
X14310720Y-11081520D01*
X14270720Y-11295520D02*
X14270720Y-11375520D01*
X14230720Y-11335520D02*
X14310720Y-11335520D01*
X14410920Y-13220340D02*
X14410920Y-13300340D01*
X14370920Y-13260340D02*
X14450920Y-13260340D01*
X14410920Y-13982340D02*
X14410920Y-14062340D01*
X14370920Y-14022340D02*
X14450920Y-14022340D01*
X14485080Y-12276460D02*
X14485080Y-12356460D01*
X14445080Y-12316460D02*
X14525080Y-12316460D01*
X14735080Y-12276460D02*
X14735080Y-12356460D01*
X14695080Y-12316460D02*
X14775080Y-12316460D01*
X14917420Y-10683880D02*
X14917420Y-10763880D01*
X14877420Y-10723880D02*
X14957420Y-10723880D01*
X15287720Y-11316340D02*
X15287720Y-11396340D01*
X15247720Y-11356340D02*
X15327720Y-11356340D01*
X15295880Y-9921931D02*
X15295880Y-10001931D01*
X15255880Y-9961931D02*
X15335880Y-9961931D01*
X15295880Y-10171931D02*
X15295880Y-10251931D01*
X15255880Y-10211931D02*
X15335880Y-10211931D01*
X15537720Y-11316340D02*
X15537720Y-11396340D01*
X15497720Y-11356340D02*
X15577720Y-11356340D01*
X15618460Y-11864440D02*
X15618460Y-11944440D01*
X15578460Y-11904440D02*
X15658460Y-11904440D01*
X15618460Y-12114440D02*
X15618460Y-12194440D01*
X15578460Y-12154440D02*
X15658460Y-12154440D01*
X15679420Y-10683880D02*
X15679420Y-10763880D01*
X15639420Y-10723880D02*
X15719420Y-10723880D01*
X15836900Y-13386440D02*
X15836900Y-13466440D01*
X15796900Y-13426440D02*
X15876900Y-13426440D01*
X15836900Y-13636440D02*
X15836900Y-13716440D01*
X15796900Y-13676440D02*
X15876900Y-13676440D01*
X16181840Y-11960500D02*
X16181840Y-12040500D01*
X16141840Y-12000500D02*
X16221840Y-12000500D01*
X16181840Y-12722500D02*
X16181840Y-12802500D01*
X16141840Y-12762500D02*
X16221840Y-12762500D01*
X16232640Y-13339720D02*
X16232640Y-13419720D01*
X16192640Y-13379720D02*
X16272640Y-13379720D01*
X16232640Y-14101720D02*
X16232640Y-14181720D01*
X16192640Y-14141720D02*
X16272640Y-14141720D01*
X16329660Y-10932260D02*
X16329660Y-11012260D01*
X16289660Y-10972260D02*
X16369660Y-10972260D01*
X16329660Y-11182260D02*
X16329660Y-11262260D01*
X16289660Y-11222260D02*
X16369660Y-11222260D01*
X16435840Y-11960500D02*
X16435840Y-12040500D01*
X16395840Y-12000500D02*
X16475840Y-12000500D01*
X16435840Y-12722500D02*
X16435840Y-12802500D01*
X16395840Y-12762500D02*
X16475840Y-12762500D01*
X16486640Y-13339720D02*
X16486640Y-13419720D01*
X16446640Y-13379720D02*
X16526640Y-13379720D01*
X16486640Y-14101720D02*
X16486640Y-14181720D01*
X16446640Y-14141720D02*
X16526640Y-14141720D01*
X16689840Y-11960500D02*
X16689840Y-12040500D01*
X16649840Y-12000500D02*
X16729840Y-12000500D01*
X16689840Y-12722500D02*
X16689840Y-12802500D01*
X16649840Y-12762500D02*
X16729840Y-12762500D01*
X16740640Y-13339720D02*
X16740640Y-13419720D01*
X16700640Y-13379720D02*
X16780640Y-13379720D01*
X16740640Y-14101720D02*
X16740640Y-14181720D01*
X16700640Y-14141720D02*
X16780640Y-14141720D01*
X16846280Y-10677800D02*
X16846280Y-10757800D01*
X16806280Y-10717800D02*
X16886280Y-10717800D01*
X16846280Y-11439800D02*
X16846280Y-11519800D01*
X16806280Y-11479800D02*
X16886280Y-11479800D01*
X16943840Y-11960500D02*
X16943840Y-12040500D01*
X16903840Y-12000500D02*
X16983840Y-12000500D01*
X16943840Y-12722500D02*
X16943840Y-12802500D01*
X16903840Y-12762500D02*
X16983840Y-12762500D01*
X16994640Y-13339720D02*
X16994640Y-13419720D01*
X16954640Y-13379720D02*
X17034640Y-13379720D01*
X16994640Y-14101720D02*
X16994640Y-14181720D01*
X16954640Y-14141720D02*
X17034640Y-14141720D01*
X17100280Y-10677800D02*
X17100280Y-10757800D01*
X17060280Y-10717800D02*
X17140280Y-10717800D01*
X17100280Y-11439800D02*
X17100280Y-11519800D01*
X17060280Y-11479800D02*
X17140280Y-11479800D01*
X17197840Y-11960500D02*
X17197840Y-12040500D01*
X17157840Y-12000500D02*
X17237840Y-12000500D01*
X17197840Y-12722500D02*
X17197840Y-12802500D01*
X17157840Y-12762500D02*
X17237840Y-12762500D01*
X17248640Y-13339720D02*
X17248640Y-13419720D01*
X17208640Y-13379720D02*
X17288640Y-13379720D01*
X17248640Y-14101720D02*
X17248640Y-14181720D01*
X17208640Y-14141720D02*
X17288640Y-14141720D01*
X17354280Y-10677800D02*
X17354280Y-10757800D01*
X17314280Y-10717800D02*
X17394280Y-10717800D01*
X17354280Y-11439800D02*
X17354280Y-11519800D01*
X17314280Y-11479800D02*
X17394280Y-11479800D01*
X17451840Y-11960500D02*
X17451840Y-12040500D01*
X17411840Y-12000500D02*
X17491840Y-12000500D01*
X17451840Y-12722500D02*
X17451840Y-12802500D01*
X17411840Y-12762500D02*
X17491840Y-12762500D01*
X17502640Y-13339720D02*
X17502640Y-13419720D01*
X17462640Y-13379720D02*
X17542640Y-13379720D01*
X17502640Y-14101720D02*
X17502640Y-14181720D01*
X17462640Y-14141720D02*
X17542640Y-14141720D01*
X17608280Y-10677800D02*
X17608280Y-10757800D01*
X17568280Y-10717800D02*
X17648280Y-10717800D01*
X17608280Y-11439800D02*
X17608280Y-11519800D01*
X17568280Y-11479800D02*
X17648280Y-11479800D01*
X17705840Y-11960500D02*
X17705840Y-12040500D01*
X17665840Y-12000500D02*
X17745840Y-12000500D01*
X17705840Y-12722500D02*
X17705840Y-12802500D01*
X17665840Y-12762500D02*
X17745840Y-12762500D01*
X17726660Y-10060449D02*
X17726660Y-10140449D01*
X17686660Y-10100449D02*
X17766660Y-10100449D01*
X17726660Y-10310449D02*
X17726660Y-10390449D01*
X17686660Y-10350449D02*
X17766660Y-10350449D01*
X17756640Y-13339720D02*
X17756640Y-13419720D01*
X17716640Y-13379720D02*
X17796640Y-13379720D01*
X17756640Y-14101720D02*
X17756640Y-14181720D01*
X17716640Y-14141720D02*
X17796640Y-14141720D01*
D15*
X8879636Y-14728216D02*
X8879636Y-14657504D01*
X8808924Y-14657504D01*
X8808924Y-14728216D01*
X8879636Y-14728216D01*
X9133636Y-14728216D02*
X9133636Y-14657504D01*
X9062924Y-14657504D01*
X9062924Y-14728216D01*
X9133636Y-14728216D01*
X9387636Y-14728216D02*
X9387636Y-14657504D01*
X9316924Y-14657504D01*
X9316924Y-14728216D01*
X9387636Y-14728216D01*
X10140976Y-14729256D02*
X10140976Y-14658544D01*
X10070264Y-14658544D01*
X10070264Y-14729256D01*
X10140976Y-14729256D01*
X10394976Y-14729256D02*
X10394976Y-14658544D01*
X10324264Y-14658544D01*
X10324264Y-14729256D01*
X10394976Y-14729256D01*
X10648976Y-14729256D02*
X10648976Y-14658544D01*
X10578264Y-14658544D01*
X10578264Y-14729256D01*
X10648976Y-14729256D01*
X11671096Y-7987146D02*
X11671096Y-7916434D01*
X11600384Y-7916434D01*
X11600384Y-7987146D01*
X11671096Y-7987146D01*
X11671096Y-8241146D02*
X11671096Y-8170434D01*
X11600384Y-8170434D01*
X11600384Y-8241146D01*
X11671096Y-8241146D01*
X11925096Y-7987146D02*
X11925096Y-7916434D01*
X11854384Y-7916434D01*
X11854384Y-7987146D01*
X11925096Y-7987146D01*
X11925096Y-8241146D02*
X11925096Y-8170434D01*
X11854384Y-8170434D01*
X11854384Y-8241146D01*
X11925096Y-8241146D01*
X12179096Y-7987146D02*
X12179096Y-7916434D01*
X12108384Y-7916434D01*
X12108384Y-7987146D01*
X12179096Y-7987146D01*
X12179096Y-8241146D02*
X12179096Y-8170434D01*
X12108384Y-8170434D01*
X12108384Y-8241146D01*
X12179096Y-8241146D01*
X12433096Y-7987146D02*
X12433096Y-7916434D01*
X12362384Y-7916434D01*
X12362384Y-7987146D01*
X12433096Y-7987146D01*
X12433096Y-8241146D02*
X12433096Y-8170434D01*
X12362384Y-8170434D01*
X12362384Y-8241146D01*
X12433096Y-8241146D01*
X12687096Y-7987146D02*
X12687096Y-7916434D01*
X12616384Y-7916434D01*
X12616384Y-7987146D01*
X12687096Y-7987146D01*
X12687096Y-8241146D02*
X12687096Y-8170434D01*
X12616384Y-8170434D01*
X12616384Y-8241146D01*
X12687096Y-8241146D01*
X12941096Y-7987146D02*
X12941096Y-7916434D01*
X12870384Y-7916434D01*
X12870384Y-7987146D01*
X12941096Y-7987146D01*
X12941096Y-8241146D02*
X12941096Y-8170434D01*
X12870384Y-8170434D01*
X12870384Y-8241146D01*
X12941096Y-8241146D01*
X13195096Y-7987146D02*
X13195096Y-7916434D01*
X13124384Y-7916434D01*
X13124384Y-7987146D01*
X13195096Y-7987146D01*
X13195096Y-8241146D02*
X13195096Y-8170434D01*
X13124384Y-8170434D01*
X13124384Y-8241146D01*
X13195096Y-8241146D01*
X13449096Y-7987146D02*
X13449096Y-7916434D01*
X13378384Y-7916434D01*
X13378384Y-7987146D01*
X13449096Y-7987146D01*
X13449096Y-8241146D02*
X13449096Y-8170434D01*
X13378384Y-8170434D01*
X13378384Y-8241146D01*
X13449096Y-8241146D01*
X13703096Y-7987146D02*
X13703096Y-7916434D01*
X13632384Y-7916434D01*
X13632384Y-7987146D01*
X13703096Y-7987146D01*
X13703096Y-8241146D02*
X13703096Y-8170434D01*
X13632384Y-8170434D01*
X13632384Y-8241146D01*
X13703096Y-8241146D01*
X13957096Y-7987146D02*
X13957096Y-7916434D01*
X13886384Y-7916434D01*
X13886384Y-7987146D01*
X13957096Y-7987146D01*
X13957096Y-8241146D02*
X13957096Y-8170434D01*
X13886384Y-8170434D01*
X13886384Y-8241146D01*
X13957096Y-8241146D01*
X14211096Y-7987146D02*
X14211096Y-7916434D01*
X14140384Y-7916434D01*
X14140384Y-7987146D01*
X14211096Y-7987146D01*
X14211096Y-8241146D02*
X14211096Y-8170434D01*
X14140384Y-8170434D01*
X14140384Y-8241146D01*
X14211096Y-8241146D01*
X14465096Y-7987146D02*
X14465096Y-7916434D01*
X14394384Y-7916434D01*
X14394384Y-7987146D01*
X14465096Y-7987146D01*
X14465096Y-8241146D02*
X14465096Y-8170434D01*
X14394384Y-8170434D01*
X14394384Y-8241146D01*
X14465096Y-8241146D01*
X14719096Y-7987146D02*
X14719096Y-7916434D01*
X14648384Y-7916434D01*
X14648384Y-7987146D01*
X14719096Y-7987146D01*
X14719096Y-8241146D02*
X14719096Y-8170434D01*
X14648384Y-8170434D01*
X14648384Y-8241146D01*
X14719096Y-8241146D01*
X14973096Y-7987146D02*
X14973096Y-7916434D01*
X14902384Y-7916434D01*
X14902384Y-7987146D01*
X14973096Y-7987146D01*
X14973096Y-8241146D02*
X14973096Y-8170434D01*
X14902384Y-8170434D01*
X14902384Y-8241146D01*
X14973096Y-8241146D01*
X15227096Y-7987146D02*
X15227096Y-7916434D01*
X15156384Y-7916434D01*
X15156384Y-7987146D01*
X15227096Y-7987146D01*
X15227096Y-8241146D02*
X15227096Y-8170434D01*
X15156384Y-8170434D01*
X15156384Y-8241146D01*
X15227096Y-8241146D01*
X15467356Y-14809036D02*
X15467356Y-14738324D01*
X15396644Y-14738324D01*
X15396644Y-14809036D01*
X15467356Y-14809036D01*
X15481096Y-7987146D02*
X15481096Y-7916434D01*
X15410384Y-7916434D01*
X15410384Y-7987146D01*
X15481096Y-7987146D01*
X15481096Y-8241146D02*
X15481096Y-8170434D01*
X15410384Y-8170434D01*
X15410384Y-8241146D01*
X15481096Y-8241146D01*
X15721356Y-14809036D02*
X15721356Y-14738324D01*
X15650644Y-14738324D01*
X15650644Y-14809036D01*
X15721356Y-14809036D01*
X15735096Y-7987146D02*
X15735096Y-7916434D01*
X15664384Y-7916434D01*
X15664384Y-7987146D01*
X15735096Y-7987146D01*
X15735096Y-8241146D02*
X15735096Y-8170434D01*
X15664384Y-8170434D01*
X15664384Y-8241146D01*
X15735096Y-8241146D01*
X15975356Y-14809036D02*
X15975356Y-14738324D01*
X15904644Y-14738324D01*
X15904644Y-14809036D01*
X15975356Y-14809036D01*
X15989096Y-7987146D02*
X15989096Y-7916434D01*
X15918384Y-7916434D01*
X15918384Y-7987146D01*
X15989096Y-7987146D01*
X15989096Y-8241146D02*
X15989096Y-8170434D01*
X15918384Y-8170434D01*
X15918384Y-8241146D01*
X15989096Y-8241146D01*
X16219196Y-9408456D02*
X16219196Y-9337744D01*
X16148484Y-9337744D01*
X16148484Y-9408456D01*
X16219196Y-9408456D01*
X16219196Y-9662456D02*
X16219196Y-9591744D01*
X16148484Y-9591744D01*
X16148484Y-9662456D01*
X16219196Y-9662456D01*
X16243096Y-7987146D02*
X16243096Y-7916434D01*
X16172384Y-7916434D01*
X16172384Y-7987146D01*
X16243096Y-7987146D01*
X16243096Y-8241146D02*
X16243096Y-8170434D01*
X16172384Y-8170434D01*
X16172384Y-8241146D01*
X16243096Y-8241146D01*
X16473196Y-9408456D02*
X16473196Y-9337744D01*
X16402484Y-9337744D01*
X16402484Y-9408456D01*
X16473196Y-9408456D01*
X16473196Y-9662456D02*
X16473196Y-9591744D01*
X16402484Y-9591744D01*
X16402484Y-9662456D01*
X16473196Y-9662456D01*
X16497096Y-7987146D02*
X16497096Y-7916434D01*
X16426384Y-7916434D01*
X16426384Y-7987146D01*
X16497096Y-7987146D01*
X16497096Y-8241146D02*
X16497096Y-8170434D01*
X16426384Y-8170434D01*
X16426384Y-8241146D01*
X16497096Y-8241146D01*
X16727196Y-9408456D02*
X16727196Y-9337744D01*
X16656484Y-9337744D01*
X16656484Y-9408456D01*
X16727196Y-9408456D01*
X16727196Y-9662456D02*
X16727196Y-9591744D01*
X16656484Y-9591744D01*
X16656484Y-9662456D01*
X16727196Y-9662456D01*
X16832376Y-14797836D02*
X16832376Y-14727124D01*
X16761664Y-14727124D01*
X16761664Y-14797836D01*
X16832376Y-14797836D01*
X16981196Y-9408456D02*
X16981196Y-9337744D01*
X16910484Y-9337744D01*
X16910484Y-9408456D01*
X16981196Y-9408456D01*
X16981196Y-9662456D02*
X16981196Y-9591744D01*
X16910484Y-9591744D01*
X16910484Y-9662456D01*
X16981196Y-9662456D01*
X17086376Y-14797836D02*
X17086376Y-14727124D01*
X17015664Y-14727124D01*
X17015664Y-14797836D01*
X17086376Y-14797836D01*
X17235196Y-9408456D02*
X17235196Y-9337744D01*
X17164484Y-9337744D01*
X17164484Y-9408456D01*
X17235196Y-9408456D01*
X17235196Y-9662456D02*
X17235196Y-9591744D01*
X17164484Y-9591744D01*
X17164484Y-9662456D01*
X17235196Y-9662456D01*
X17340376Y-14797836D02*
X17340376Y-14727124D01*
X17269664Y-14727124D01*
X17269664Y-14797836D01*
X17340376Y-14797836D01*
X17489196Y-9408456D02*
X17489196Y-9337744D01*
X17418484Y-9337744D01*
X17418484Y-9408456D01*
X17489196Y-9408456D01*
X17489196Y-9662456D02*
X17489196Y-9591744D01*
X17418484Y-9591744D01*
X17418484Y-9662456D01*
X17489196Y-9662456D01*
X17743196Y-9408456D02*
X17743196Y-9337744D01*
X17672484Y-9337744D01*
X17672484Y-9408456D01*
X17743196Y-9408456D01*
X17743196Y-9662456D02*
X17743196Y-9591744D01*
X17672484Y-9591744D01*
X17672484Y-9662456D01*
X17743196Y-9662456D01*
X17997196Y-9408456D02*
X17997196Y-9337744D01*
X17926484Y-9337744D01*
X17926484Y-9408456D01*
X17997196Y-9408456D01*
X17997196Y-9662456D02*
X17997196Y-9591744D01*
X17926484Y-9591744D01*
X17926484Y-9662456D01*
X17997196Y-9662456D01*
D16*
X12923640Y-14666140D02*
X12978640Y-14611140D01*
X12923640Y-14556140D01*
X12868640Y-14611140D01*
X12923640Y-14666140D01*
X12923640Y-15116140D02*
X12978640Y-15061140D01*
X12923640Y-15006140D01*
X12868640Y-15061140D01*
X12923640Y-15116140D01*
X13573640Y-14666140D02*
X13628640Y-14611140D01*
X13573640Y-14556140D01*
X13518640Y-14611140D01*
X13573640Y-14666140D01*
X13573640Y-15116140D02*
X13628640Y-15061140D01*
X13573640Y-15006140D01*
X13518640Y-15061140D01*
X13573640Y-15116140D01*
D17*
X8827610Y-7921960D02*
X8997610Y-8091960D01*
X8997610Y-7921960D02*
X8827610Y-8091960D01*
X8997610Y-8006960D02*
G75*
G03*
X8997610Y-8006960I-85000J0D01*
G01*
X9223610Y-7921960D02*
X9393610Y-8091960D01*
X9393610Y-7921960D02*
X9223610Y-8091960D01*
X9393610Y-8006960D02*
G75*
G03*
X9393610Y-8006960I-85000J0D01*
G01*
X9619610Y-7921960D02*
X9789610Y-8091960D01*
X9789610Y-7921960D02*
X9619610Y-8091960D01*
X9789610Y-8006960D02*
G75*
G03*
X9789610Y-8006960I-85000J0D01*
G01*
X10015610Y-7921960D02*
X10185610Y-8091960D01*
X10185610Y-7921960D02*
X10015610Y-8091960D01*
X10185610Y-8006960D02*
G75*
G03*
X10185610Y-8006960I-85000J0D01*
G01*
D11*
X8088519Y-15832336D02*
X8088519Y-15632336D01*
X8136138Y-15632336D01*
X8164709Y-15641860D01*
X8183757Y-15660908D01*
X8193281Y-15679955D01*
X8202805Y-15718050D01*
X8202805Y-15746622D01*
X8193281Y-15784717D01*
X8183757Y-15803765D01*
X8164709Y-15822812D01*
X8136138Y-15832336D01*
X8088519Y-15832336D01*
X8288519Y-15832336D02*
X8288519Y-15699003D01*
X8288519Y-15737098D02*
X8298043Y-15718050D01*
X8307567Y-15708527D01*
X8326614Y-15699003D01*
X8345662Y-15699003D01*
X8412329Y-15832336D02*
X8412329Y-15699003D01*
X8412329Y-15632336D02*
X8402805Y-15641860D01*
X8412329Y-15651384D01*
X8421852Y-15641860D01*
X8412329Y-15632336D01*
X8412329Y-15651384D01*
X8536138Y-15832336D02*
X8517090Y-15822812D01*
X8507567Y-15803765D01*
X8507567Y-15632336D01*
X8640900Y-15832336D02*
X8621852Y-15822812D01*
X8612329Y-15803765D01*
X8612329Y-15632336D01*
X8869471Y-15832336D02*
X8869471Y-15632336D01*
X8936138Y-15775193D01*
X9002805Y-15632336D01*
X9002805Y-15832336D01*
X9183757Y-15832336D02*
X9183757Y-15727574D01*
X9174233Y-15708527D01*
X9155186Y-15699003D01*
X9117090Y-15699003D01*
X9098043Y-15708527D01*
X9183757Y-15822812D02*
X9164710Y-15832336D01*
X9117090Y-15832336D01*
X9098043Y-15822812D01*
X9088519Y-15803765D01*
X9088519Y-15784717D01*
X9098043Y-15765669D01*
X9117090Y-15756146D01*
X9164710Y-15756146D01*
X9183757Y-15746622D01*
X9278995Y-15699003D02*
X9278995Y-15899003D01*
X9278995Y-15708527D02*
X9298043Y-15699003D01*
X9336138Y-15699003D01*
X9355186Y-15708527D01*
X9364710Y-15718050D01*
X9374233Y-15737098D01*
X9374233Y-15794241D01*
X9364710Y-15813288D01*
X9355186Y-15822812D01*
X9336138Y-15832336D01*
X9298043Y-15832336D01*
X9278995Y-15822812D01*
X9459948Y-15813288D02*
X9469471Y-15822812D01*
X9459948Y-15832336D01*
X9450424Y-15822812D01*
X9459948Y-15813288D01*
X9459948Y-15832336D01*
X9459948Y-15708527D02*
X9469471Y-15718050D01*
X9459948Y-15727574D01*
X9450424Y-15718050D01*
X9459948Y-15708527D01*
X9459948Y-15727574D01*
D12*
X7790900Y-16141860D02*
X7830900Y-16181860D01*
X7830900Y-16141860D02*
X7790900Y-16181860D01*
D11*
X8126614Y-16052336D02*
X8145662Y-16052336D01*
X8164709Y-16061860D01*
X8174233Y-16071384D01*
X8183757Y-16090431D01*
X8193281Y-16128527D01*
X8193281Y-16176146D01*
X8183757Y-16214241D01*
X8174233Y-16233288D01*
X8164709Y-16242812D01*
X8145662Y-16252336D01*
X8126614Y-16252336D01*
X8107567Y-16242812D01*
X8098043Y-16233288D01*
X8088519Y-16214241D01*
X8078995Y-16176146D01*
X8078995Y-16128527D01*
X8088519Y-16090431D01*
X8098043Y-16071384D01*
X8107567Y-16061860D01*
X8126614Y-16052336D01*
X8278995Y-16233288D02*
X8288519Y-16242812D01*
X8278995Y-16252336D01*
X8269471Y-16242812D01*
X8278995Y-16233288D01*
X8278995Y-16252336D01*
X8459948Y-16119003D02*
X8459948Y-16252336D01*
X8412329Y-16042812D02*
X8364709Y-16185669D01*
X8488519Y-16185669D01*
X8602805Y-16052336D02*
X8621852Y-16052336D01*
X8640900Y-16061860D01*
X8650424Y-16071384D01*
X8659948Y-16090431D01*
X8669471Y-16128527D01*
X8669471Y-16176146D01*
X8659948Y-16214241D01*
X8650424Y-16233288D01*
X8640900Y-16242812D01*
X8621852Y-16252336D01*
X8602805Y-16252336D01*
X8583757Y-16242812D01*
X8574233Y-16233288D01*
X8564710Y-16214241D01*
X8555186Y-16176146D01*
X8555186Y-16128527D01*
X8564710Y-16090431D01*
X8574233Y-16071384D01*
X8583757Y-16061860D01*
X8602805Y-16052336D01*
X8793281Y-16052336D02*
X8812329Y-16052336D01*
X8831376Y-16061860D01*
X8840900Y-16071384D01*
X8850424Y-16090431D01*
X8859948Y-16128527D01*
X8859948Y-16176146D01*
X8850424Y-16214241D01*
X8840900Y-16233288D01*
X8831376Y-16242812D01*
X8812329Y-16252336D01*
X8793281Y-16252336D01*
X8774233Y-16242812D01*
X8764710Y-16233288D01*
X8755186Y-16214241D01*
X8745662Y-16176146D01*
X8745662Y-16128527D01*
X8755186Y-16090431D01*
X8764710Y-16071384D01*
X8774233Y-16061860D01*
X8793281Y-16052336D01*
X8945662Y-16252336D02*
X8945662Y-16119003D01*
X8945662Y-16138050D02*
X8955186Y-16128527D01*
X8974233Y-16119003D01*
X9002805Y-16119003D01*
X9021852Y-16128527D01*
X9031376Y-16147574D01*
X9031376Y-16252336D01*
X9031376Y-16147574D02*
X9040900Y-16128527D01*
X9059948Y-16119003D01*
X9088519Y-16119003D01*
X9107567Y-16128527D01*
X9117090Y-16147574D01*
X9117090Y-16252336D01*
X9212329Y-16252336D02*
X9212329Y-16119003D01*
X9212329Y-16138050D02*
X9221852Y-16128527D01*
X9240900Y-16119003D01*
X9269471Y-16119003D01*
X9288519Y-16128527D01*
X9298043Y-16147574D01*
X9298043Y-16252336D01*
X9298043Y-16147574D02*
X9307567Y-16128527D01*
X9326614Y-16119003D01*
X9355186Y-16119003D01*
X9374233Y-16128527D01*
X9383757Y-16147574D01*
X9383757Y-16252336D01*
X9774233Y-16042812D02*
X9602805Y-16299955D01*
X10031376Y-16052336D02*
X10050424Y-16052336D01*
X10069471Y-16061860D01*
X10078995Y-16071384D01*
X10088519Y-16090431D01*
X10098043Y-16128527D01*
X10098043Y-16176146D01*
X10088519Y-16214241D01*
X10078995Y-16233288D01*
X10069471Y-16242812D01*
X10050424Y-16252336D01*
X10031376Y-16252336D01*
X10012329Y-16242812D01*
X10002805Y-16233288D01*
X9993281Y-16214241D01*
X9983757Y-16176146D01*
X9983757Y-16128527D01*
X9993281Y-16090431D01*
X10002805Y-16071384D01*
X10012329Y-16061860D01*
X10031376Y-16052336D01*
X10183757Y-16233288D02*
X10193281Y-16242812D01*
X10183757Y-16252336D01*
X10174233Y-16242812D01*
X10183757Y-16233288D01*
X10183757Y-16252336D01*
X10317090Y-16052336D02*
X10336138Y-16052336D01*
X10355186Y-16061860D01*
X10364710Y-16071384D01*
X10374233Y-16090431D01*
X10383757Y-16128527D01*
X10383757Y-16176146D01*
X10374233Y-16214241D01*
X10364710Y-16233288D01*
X10355186Y-16242812D01*
X10336138Y-16252336D01*
X10317090Y-16252336D01*
X10298043Y-16242812D01*
X10288519Y-16233288D01*
X10278995Y-16214241D01*
X10269471Y-16176146D01*
X10269471Y-16128527D01*
X10278995Y-16090431D01*
X10288519Y-16071384D01*
X10298043Y-16061860D01*
X10317090Y-16052336D01*
X10574233Y-16252336D02*
X10459948Y-16252336D01*
X10517090Y-16252336D02*
X10517090Y-16052336D01*
X10498043Y-16080908D01*
X10478995Y-16099955D01*
X10459948Y-16109479D01*
X10755186Y-16052336D02*
X10659948Y-16052336D01*
X10650424Y-16147574D01*
X10659948Y-16138050D01*
X10678995Y-16128527D01*
X10726614Y-16128527D01*
X10745662Y-16138050D01*
X10755186Y-16147574D01*
X10764710Y-16166622D01*
X10764710Y-16214241D01*
X10755186Y-16233288D01*
X10745662Y-16242812D01*
X10726614Y-16252336D01*
X10678995Y-16252336D01*
X10659948Y-16242812D01*
X10650424Y-16233288D01*
X10831376Y-16052336D02*
X10964710Y-16052336D01*
X10878995Y-16252336D01*
X11031376Y-16052336D02*
X11031376Y-16090431D01*
X11107567Y-16052336D02*
X11107567Y-16090431D01*
X11402805Y-16328527D02*
X11393281Y-16319003D01*
X11374233Y-16290431D01*
X11364709Y-16271384D01*
X11355186Y-16242812D01*
X11345662Y-16195193D01*
X11345662Y-16157098D01*
X11355186Y-16109479D01*
X11364709Y-16080908D01*
X11374233Y-16061860D01*
X11393281Y-16033288D01*
X11402805Y-16023765D01*
X11469471Y-16071384D02*
X11478995Y-16061860D01*
X11498043Y-16052336D01*
X11545662Y-16052336D01*
X11564709Y-16061860D01*
X11574233Y-16071384D01*
X11583757Y-16090431D01*
X11583757Y-16109479D01*
X11574233Y-16138050D01*
X11459948Y-16252336D01*
X11583757Y-16252336D01*
X11678995Y-16252336D02*
X11717090Y-16252336D01*
X11736138Y-16242812D01*
X11745662Y-16233288D01*
X11764709Y-16204717D01*
X11774233Y-16166622D01*
X11774233Y-16090431D01*
X11764709Y-16071384D01*
X11755186Y-16061860D01*
X11736138Y-16052336D01*
X11698043Y-16052336D01*
X11678995Y-16061860D01*
X11669471Y-16071384D01*
X11659948Y-16090431D01*
X11659948Y-16138050D01*
X11669471Y-16157098D01*
X11678995Y-16166622D01*
X11698043Y-16176146D01*
X11736138Y-16176146D01*
X11755186Y-16166622D01*
X11764709Y-16157098D01*
X11774233Y-16138050D01*
X12012328Y-16252336D02*
X12012328Y-16052336D01*
X12098043Y-16252336D02*
X12098043Y-16147574D01*
X12088519Y-16128527D01*
X12069471Y-16119003D01*
X12040900Y-16119003D01*
X12021852Y-16128527D01*
X12012328Y-16138050D01*
X12221852Y-16252336D02*
X12202805Y-16242812D01*
X12193281Y-16233288D01*
X12183757Y-16214241D01*
X12183757Y-16157098D01*
X12193281Y-16138050D01*
X12202805Y-16128527D01*
X12221852Y-16119003D01*
X12250424Y-16119003D01*
X12269471Y-16128527D01*
X12278995Y-16138050D01*
X12288519Y-16157098D01*
X12288519Y-16214241D01*
X12278995Y-16233288D01*
X12269471Y-16242812D01*
X12250424Y-16252336D01*
X12221852Y-16252336D01*
X12402805Y-16252336D02*
X12383757Y-16242812D01*
X12374233Y-16223765D01*
X12374233Y-16052336D01*
X12555186Y-16242812D02*
X12536138Y-16252336D01*
X12498043Y-16252336D01*
X12478995Y-16242812D01*
X12469471Y-16223765D01*
X12469471Y-16147574D01*
X12478995Y-16128527D01*
X12498043Y-16119003D01*
X12536138Y-16119003D01*
X12555186Y-16128527D01*
X12564709Y-16147574D01*
X12564709Y-16166622D01*
X12469471Y-16185669D01*
X12640900Y-16242812D02*
X12659948Y-16252336D01*
X12698043Y-16252336D01*
X12717090Y-16242812D01*
X12726614Y-16223765D01*
X12726614Y-16214241D01*
X12717090Y-16195193D01*
X12698043Y-16185669D01*
X12669471Y-16185669D01*
X12650424Y-16176146D01*
X12640900Y-16157098D01*
X12640900Y-16147574D01*
X12650424Y-16128527D01*
X12669471Y-16119003D01*
X12698043Y-16119003D01*
X12717090Y-16128527D01*
X12793281Y-16328527D02*
X12802805Y-16319003D01*
X12821852Y-16290431D01*
X12831376Y-16271384D01*
X12840900Y-16242812D01*
X12850424Y-16195193D01*
X12850424Y-16157098D01*
X12840900Y-16109479D01*
X12831376Y-16080908D01*
X12821852Y-16061860D01*
X12802805Y-16033288D01*
X12793281Y-16023765D01*
D13*
X7830900Y-16425860D02*
G75*
G03*
X7830900Y-16425860I-35000J0D01*
G01*
D11*
X8126614Y-16316336D02*
X8145662Y-16316336D01*
X8164709Y-16325860D01*
X8174233Y-16335384D01*
X8183757Y-16354431D01*
X8193281Y-16392527D01*
X8193281Y-16440146D01*
X8183757Y-16478241D01*
X8174233Y-16497288D01*
X8164709Y-16506812D01*
X8145662Y-16516336D01*
X8126614Y-16516336D01*
X8107567Y-16506812D01*
X8098043Y-16497288D01*
X8088519Y-16478241D01*
X8078995Y-16440146D01*
X8078995Y-16392527D01*
X8088519Y-16354431D01*
X8098043Y-16335384D01*
X8107567Y-16325860D01*
X8126614Y-16316336D01*
X8278995Y-16497288D02*
X8288519Y-16506812D01*
X8278995Y-16516336D01*
X8269471Y-16506812D01*
X8278995Y-16497288D01*
X8278995Y-16516336D01*
X8355186Y-16316336D02*
X8488519Y-16316336D01*
X8402805Y-16516336D01*
X8602805Y-16316336D02*
X8621852Y-16316336D01*
X8640900Y-16325860D01*
X8650424Y-16335384D01*
X8659948Y-16354431D01*
X8669471Y-16392527D01*
X8669471Y-16440146D01*
X8659948Y-16478241D01*
X8650424Y-16497288D01*
X8640900Y-16506812D01*
X8621852Y-16516336D01*
X8602805Y-16516336D01*
X8583757Y-16506812D01*
X8574233Y-16497288D01*
X8564710Y-16478241D01*
X8555186Y-16440146D01*
X8555186Y-16392527D01*
X8564710Y-16354431D01*
X8574233Y-16335384D01*
X8583757Y-16325860D01*
X8602805Y-16316336D01*
X8793281Y-16316336D02*
X8812329Y-16316336D01*
X8831376Y-16325860D01*
X8840900Y-16335384D01*
X8850424Y-16354431D01*
X8859948Y-16392527D01*
X8859948Y-16440146D01*
X8850424Y-16478241D01*
X8840900Y-16497288D01*
X8831376Y-16506812D01*
X8812329Y-16516336D01*
X8793281Y-16516336D01*
X8774233Y-16506812D01*
X8764710Y-16497288D01*
X8755186Y-16478241D01*
X8745662Y-16440146D01*
X8745662Y-16392527D01*
X8755186Y-16354431D01*
X8764710Y-16335384D01*
X8774233Y-16325860D01*
X8793281Y-16316336D01*
X8945662Y-16516336D02*
X8945662Y-16383003D01*
X8945662Y-16402050D02*
X8955186Y-16392527D01*
X8974233Y-16383003D01*
X9002805Y-16383003D01*
X9021852Y-16392527D01*
X9031376Y-16411574D01*
X9031376Y-16516336D01*
X9031376Y-16411574D02*
X9040900Y-16392527D01*
X9059948Y-16383003D01*
X9088519Y-16383003D01*
X9107567Y-16392527D01*
X9117090Y-16411574D01*
X9117090Y-16516336D01*
X9212329Y-16516336D02*
X9212329Y-16383003D01*
X9212329Y-16402050D02*
X9221852Y-16392527D01*
X9240900Y-16383003D01*
X9269471Y-16383003D01*
X9288519Y-16392527D01*
X9298043Y-16411574D01*
X9298043Y-16516336D01*
X9298043Y-16411574D02*
X9307567Y-16392527D01*
X9326614Y-16383003D01*
X9355186Y-16383003D01*
X9374233Y-16392527D01*
X9383757Y-16411574D01*
X9383757Y-16516336D01*
X9774233Y-16306812D02*
X9602805Y-16563955D01*
X10031376Y-16316336D02*
X10050424Y-16316336D01*
X10069471Y-16325860D01*
X10078995Y-16335384D01*
X10088519Y-16354431D01*
X10098043Y-16392527D01*
X10098043Y-16440146D01*
X10088519Y-16478241D01*
X10078995Y-16497288D01*
X10069471Y-16506812D01*
X10050424Y-16516336D01*
X10031376Y-16516336D01*
X10012329Y-16506812D01*
X10002805Y-16497288D01*
X9993281Y-16478241D01*
X9983757Y-16440146D01*
X9983757Y-16392527D01*
X9993281Y-16354431D01*
X10002805Y-16335384D01*
X10012329Y-16325860D01*
X10031376Y-16316336D01*
X10183757Y-16497288D02*
X10193281Y-16506812D01*
X10183757Y-16516336D01*
X10174233Y-16506812D01*
X10183757Y-16497288D01*
X10183757Y-16516336D01*
X10317090Y-16316336D02*
X10336138Y-16316336D01*
X10355186Y-16325860D01*
X10364710Y-16335384D01*
X10374233Y-16354431D01*
X10383757Y-16392527D01*
X10383757Y-16440146D01*
X10374233Y-16478241D01*
X10364710Y-16497288D01*
X10355186Y-16506812D01*
X10336138Y-16516336D01*
X10317090Y-16516336D01*
X10298043Y-16506812D01*
X10288519Y-16497288D01*
X10278995Y-16478241D01*
X10269471Y-16440146D01*
X10269471Y-16392527D01*
X10278995Y-16354431D01*
X10288519Y-16335384D01*
X10298043Y-16325860D01*
X10317090Y-16316336D01*
X10459948Y-16335384D02*
X10469471Y-16325860D01*
X10488519Y-16316336D01*
X10536138Y-16316336D01*
X10555186Y-16325860D01*
X10564710Y-16335384D01*
X10574233Y-16354431D01*
X10574233Y-16373479D01*
X10564710Y-16402050D01*
X10450424Y-16516336D01*
X10574233Y-16516336D01*
X10640900Y-16316336D02*
X10774233Y-16316336D01*
X10688519Y-16516336D01*
X10936138Y-16316336D02*
X10898043Y-16316336D01*
X10878995Y-16325860D01*
X10869471Y-16335384D01*
X10850424Y-16363955D01*
X10840900Y-16402050D01*
X10840900Y-16478241D01*
X10850424Y-16497288D01*
X10859948Y-16506812D01*
X10878995Y-16516336D01*
X10917090Y-16516336D01*
X10936138Y-16506812D01*
X10945662Y-16497288D01*
X10955186Y-16478241D01*
X10955186Y-16430622D01*
X10945662Y-16411574D01*
X10936138Y-16402050D01*
X10917090Y-16392527D01*
X10878995Y-16392527D01*
X10859948Y-16402050D01*
X10850424Y-16411574D01*
X10840900Y-16430622D01*
X11031376Y-16316336D02*
X11031376Y-16354431D01*
X11107567Y-16316336D02*
X11107567Y-16354431D01*
X11402805Y-16592527D02*
X11393281Y-16583003D01*
X11374233Y-16554431D01*
X11364709Y-16535384D01*
X11355186Y-16506812D01*
X11345662Y-16459193D01*
X11345662Y-16421098D01*
X11355186Y-16373479D01*
X11364709Y-16344908D01*
X11374233Y-16325860D01*
X11393281Y-16297288D01*
X11402805Y-16287765D01*
X11469471Y-16335384D02*
X11478995Y-16325860D01*
X11498043Y-16316336D01*
X11545662Y-16316336D01*
X11564709Y-16325860D01*
X11574233Y-16335384D01*
X11583757Y-16354431D01*
X11583757Y-16373479D01*
X11574233Y-16402050D01*
X11459948Y-16516336D01*
X11583757Y-16516336D01*
X11659948Y-16335384D02*
X11669471Y-16325860D01*
X11688519Y-16316336D01*
X11736138Y-16316336D01*
X11755186Y-16325860D01*
X11764709Y-16335384D01*
X11774233Y-16354431D01*
X11774233Y-16373479D01*
X11764709Y-16402050D01*
X11650424Y-16516336D01*
X11774233Y-16516336D01*
X12012328Y-16516336D02*
X12012328Y-16316336D01*
X12098043Y-16516336D02*
X12098043Y-16411574D01*
X12088519Y-16392527D01*
X12069471Y-16383003D01*
X12040900Y-16383003D01*
X12021852Y-16392527D01*
X12012328Y-16402050D01*
X12221852Y-16516336D02*
X12202805Y-16506812D01*
X12193281Y-16497288D01*
X12183757Y-16478241D01*
X12183757Y-16421098D01*
X12193281Y-16402050D01*
X12202805Y-16392527D01*
X12221852Y-16383003D01*
X12250424Y-16383003D01*
X12269471Y-16392527D01*
X12278995Y-16402050D01*
X12288519Y-16421098D01*
X12288519Y-16478241D01*
X12278995Y-16497288D01*
X12269471Y-16506812D01*
X12250424Y-16516336D01*
X12221852Y-16516336D01*
X12402805Y-16516336D02*
X12383757Y-16506812D01*
X12374233Y-16487765D01*
X12374233Y-16316336D01*
X12555186Y-16506812D02*
X12536138Y-16516336D01*
X12498043Y-16516336D01*
X12478995Y-16506812D01*
X12469471Y-16487765D01*
X12469471Y-16411574D01*
X12478995Y-16392527D01*
X12498043Y-16383003D01*
X12536138Y-16383003D01*
X12555186Y-16392527D01*
X12564709Y-16411574D01*
X12564709Y-16430622D01*
X12469471Y-16449669D01*
X12640900Y-16506812D02*
X12659948Y-16516336D01*
X12698043Y-16516336D01*
X12717090Y-16506812D01*
X12726614Y-16487765D01*
X12726614Y-16478241D01*
X12717090Y-16459193D01*
X12698043Y-16449669D01*
X12669471Y-16449669D01*
X12650424Y-16440146D01*
X12640900Y-16421098D01*
X12640900Y-16411574D01*
X12650424Y-16392527D01*
X12669471Y-16383003D01*
X12698043Y-16383003D01*
X12717090Y-16392527D01*
X12793281Y-16592527D02*
X12802805Y-16583003D01*
X12821852Y-16554431D01*
X12831376Y-16535384D01*
X12840900Y-16506812D01*
X12850424Y-16459193D01*
X12850424Y-16421098D01*
X12840900Y-16373479D01*
X12831376Y-16344908D01*
X12821852Y-16325860D01*
X12802805Y-16297288D01*
X12793281Y-16287765D01*
D14*
X7790900Y-16649860D02*
X7790900Y-16729860D01*
X7750900Y-16689860D02*
X7830900Y-16689860D01*
D11*
X8126614Y-16580336D02*
X8145662Y-16580336D01*
X8164709Y-16589860D01*
X8174233Y-16599384D01*
X8183757Y-16618431D01*
X8193281Y-16656527D01*
X8193281Y-16704146D01*
X8183757Y-16742241D01*
X8174233Y-16761288D01*
X8164709Y-16770812D01*
X8145662Y-16780336D01*
X8126614Y-16780336D01*
X8107567Y-16770812D01*
X8098043Y-16761288D01*
X8088519Y-16742241D01*
X8078995Y-16704146D01*
X8078995Y-16656527D01*
X8088519Y-16618431D01*
X8098043Y-16599384D01*
X8107567Y-16589860D01*
X8126614Y-16580336D01*
X8278995Y-16761288D02*
X8288519Y-16770812D01*
X8278995Y-16780336D01*
X8269471Y-16770812D01*
X8278995Y-16761288D01*
X8278995Y-16780336D01*
X8402805Y-16666050D02*
X8383757Y-16656527D01*
X8374233Y-16647003D01*
X8364709Y-16627955D01*
X8364709Y-16618431D01*
X8374233Y-16599384D01*
X8383757Y-16589860D01*
X8402805Y-16580336D01*
X8440900Y-16580336D01*
X8459948Y-16589860D01*
X8469471Y-16599384D01*
X8478995Y-16618431D01*
X8478995Y-16627955D01*
X8469471Y-16647003D01*
X8459948Y-16656527D01*
X8440900Y-16666050D01*
X8402805Y-16666050D01*
X8383757Y-16675574D01*
X8374233Y-16685098D01*
X8364709Y-16704146D01*
X8364709Y-16742241D01*
X8374233Y-16761288D01*
X8383757Y-16770812D01*
X8402805Y-16780336D01*
X8440900Y-16780336D01*
X8459948Y-16770812D01*
X8469471Y-16761288D01*
X8478995Y-16742241D01*
X8478995Y-16704146D01*
X8469471Y-16685098D01*
X8459948Y-16675574D01*
X8440900Y-16666050D01*
X8602805Y-16580336D02*
X8621852Y-16580336D01*
X8640900Y-16589860D01*
X8650424Y-16599384D01*
X8659948Y-16618431D01*
X8669471Y-16656527D01*
X8669471Y-16704146D01*
X8659948Y-16742241D01*
X8650424Y-16761288D01*
X8640900Y-16770812D01*
X8621852Y-16780336D01*
X8602805Y-16780336D01*
X8583757Y-16770812D01*
X8574233Y-16761288D01*
X8564710Y-16742241D01*
X8555186Y-16704146D01*
X8555186Y-16656527D01*
X8564710Y-16618431D01*
X8574233Y-16599384D01*
X8583757Y-16589860D01*
X8602805Y-16580336D01*
X8793281Y-16580336D02*
X8812329Y-16580336D01*
X8831376Y-16589860D01*
X8840900Y-16599384D01*
X8850424Y-16618431D01*
X8859948Y-16656527D01*
X8859948Y-16704146D01*
X8850424Y-16742241D01*
X8840900Y-16761288D01*
X8831376Y-16770812D01*
X8812329Y-16780336D01*
X8793281Y-16780336D01*
X8774233Y-16770812D01*
X8764710Y-16761288D01*
X8755186Y-16742241D01*
X8745662Y-16704146D01*
X8745662Y-16656527D01*
X8755186Y-16618431D01*
X8764710Y-16599384D01*
X8774233Y-16589860D01*
X8793281Y-16580336D01*
X8945662Y-16780336D02*
X8945662Y-16647003D01*
X8945662Y-16666050D02*
X8955186Y-16656527D01*
X8974233Y-16647003D01*
X9002805Y-16647003D01*
X9021852Y-16656527D01*
X9031376Y-16675574D01*
X9031376Y-16780336D01*
X9031376Y-16675574D02*
X9040900Y-16656527D01*
X9059948Y-16647003D01*
X9088519Y-16647003D01*
X9107567Y-16656527D01*
X9117090Y-16675574D01*
X9117090Y-16780336D01*
X9212329Y-16780336D02*
X9212329Y-16647003D01*
X9212329Y-16666050D02*
X9221852Y-16656527D01*
X9240900Y-16647003D01*
X9269471Y-16647003D01*
X9288519Y-16656527D01*
X9298043Y-16675574D01*
X9298043Y-16780336D01*
X9298043Y-16675574D02*
X9307567Y-16656527D01*
X9326614Y-16647003D01*
X9355186Y-16647003D01*
X9374233Y-16656527D01*
X9383757Y-16675574D01*
X9383757Y-16780336D01*
X9774233Y-16570812D02*
X9602805Y-16827955D01*
X10031376Y-16580336D02*
X10050424Y-16580336D01*
X10069471Y-16589860D01*
X10078995Y-16599384D01*
X10088519Y-16618431D01*
X10098043Y-16656527D01*
X10098043Y-16704146D01*
X10088519Y-16742241D01*
X10078995Y-16761288D01*
X10069471Y-16770812D01*
X10050424Y-16780336D01*
X10031376Y-16780336D01*
X10012329Y-16770812D01*
X10002805Y-16761288D01*
X9993281Y-16742241D01*
X9983757Y-16704146D01*
X9983757Y-16656527D01*
X9993281Y-16618431D01*
X10002805Y-16599384D01*
X10012329Y-16589860D01*
X10031376Y-16580336D01*
X10183757Y-16761288D02*
X10193281Y-16770812D01*
X10183757Y-16780336D01*
X10174233Y-16770812D01*
X10183757Y-16761288D01*
X10183757Y-16780336D01*
X10317090Y-16580336D02*
X10336138Y-16580336D01*
X10355186Y-16589860D01*
X10364710Y-16599384D01*
X10374233Y-16618431D01*
X10383757Y-16656527D01*
X10383757Y-16704146D01*
X10374233Y-16742241D01*
X10364710Y-16761288D01*
X10355186Y-16770812D01*
X10336138Y-16780336D01*
X10317090Y-16780336D01*
X10298043Y-16770812D01*
X10288519Y-16761288D01*
X10278995Y-16742241D01*
X10269471Y-16704146D01*
X10269471Y-16656527D01*
X10278995Y-16618431D01*
X10288519Y-16599384D01*
X10298043Y-16589860D01*
X10317090Y-16580336D01*
X10450424Y-16580336D02*
X10574233Y-16580336D01*
X10507567Y-16656527D01*
X10536138Y-16656527D01*
X10555186Y-16666050D01*
X10564710Y-16675574D01*
X10574233Y-16694622D01*
X10574233Y-16742241D01*
X10564710Y-16761288D01*
X10555186Y-16770812D01*
X10536138Y-16780336D01*
X10478995Y-16780336D01*
X10459948Y-16770812D01*
X10450424Y-16761288D01*
X10764710Y-16780336D02*
X10650424Y-16780336D01*
X10707567Y-16780336D02*
X10707567Y-16580336D01*
X10688519Y-16608908D01*
X10669471Y-16627955D01*
X10650424Y-16637479D01*
X10945662Y-16580336D02*
X10850424Y-16580336D01*
X10840900Y-16675574D01*
X10850424Y-16666050D01*
X10869471Y-16656527D01*
X10917090Y-16656527D01*
X10936138Y-16666050D01*
X10945662Y-16675574D01*
X10955186Y-16694622D01*
X10955186Y-16742241D01*
X10945662Y-16761288D01*
X10936138Y-16770812D01*
X10917090Y-16780336D01*
X10869471Y-16780336D01*
X10850424Y-16770812D01*
X10840900Y-16761288D01*
X11031376Y-16580336D02*
X11031376Y-16618431D01*
X11107567Y-16580336D02*
X11107567Y-16618431D01*
X11402805Y-16856527D02*
X11393281Y-16847003D01*
X11374233Y-16818431D01*
X11364709Y-16799384D01*
X11355186Y-16770812D01*
X11345662Y-16723193D01*
X11345662Y-16685098D01*
X11355186Y-16637479D01*
X11364709Y-16608908D01*
X11374233Y-16589860D01*
X11393281Y-16561288D01*
X11402805Y-16551765D01*
X11583757Y-16780336D02*
X11469471Y-16780336D01*
X11526614Y-16780336D02*
X11526614Y-16580336D01*
X11507567Y-16608908D01*
X11488519Y-16627955D01*
X11469471Y-16637479D01*
X11764709Y-16580336D02*
X11669471Y-16580336D01*
X11659948Y-16675574D01*
X11669471Y-16666050D01*
X11688519Y-16656527D01*
X11736138Y-16656527D01*
X11755186Y-16666050D01*
X11764709Y-16675574D01*
X11774233Y-16694622D01*
X11774233Y-16742241D01*
X11764709Y-16761288D01*
X11755186Y-16770812D01*
X11736138Y-16780336D01*
X11688519Y-16780336D01*
X11669471Y-16770812D01*
X11659948Y-16761288D01*
X11945662Y-16647003D02*
X11945662Y-16780336D01*
X11898043Y-16570812D02*
X11850424Y-16713669D01*
X11974233Y-16713669D01*
X12202805Y-16780336D02*
X12202805Y-16580336D01*
X12288519Y-16780336D02*
X12288519Y-16675574D01*
X12278995Y-16656527D01*
X12259948Y-16647003D01*
X12231376Y-16647003D01*
X12212328Y-16656527D01*
X12202805Y-16666050D01*
X12412328Y-16780336D02*
X12393281Y-16770812D01*
X12383757Y-16761288D01*
X12374233Y-16742241D01*
X12374233Y-16685098D01*
X12383757Y-16666050D01*
X12393281Y-16656527D01*
X12412328Y-16647003D01*
X12440900Y-16647003D01*
X12459948Y-16656527D01*
X12469471Y-16666050D01*
X12478995Y-16685098D01*
X12478995Y-16742241D01*
X12469471Y-16761288D01*
X12459948Y-16770812D01*
X12440900Y-16780336D01*
X12412328Y-16780336D01*
X12593281Y-16780336D02*
X12574233Y-16770812D01*
X12564709Y-16751765D01*
X12564709Y-16580336D01*
X12745662Y-16770812D02*
X12726614Y-16780336D01*
X12688519Y-16780336D01*
X12669471Y-16770812D01*
X12659948Y-16751765D01*
X12659948Y-16675574D01*
X12669471Y-16656527D01*
X12688519Y-16647003D01*
X12726614Y-16647003D01*
X12745662Y-16656527D01*
X12755186Y-16675574D01*
X12755186Y-16694622D01*
X12659948Y-16713669D01*
X12831376Y-16770812D02*
X12850424Y-16780336D01*
X12888519Y-16780336D01*
X12907567Y-16770812D01*
X12917090Y-16751765D01*
X12917090Y-16742241D01*
X12907567Y-16723193D01*
X12888519Y-16713669D01*
X12859948Y-16713669D01*
X12840900Y-16704146D01*
X12831376Y-16685098D01*
X12831376Y-16675574D01*
X12840900Y-16656527D01*
X12859948Y-16647003D01*
X12888519Y-16647003D01*
X12907567Y-16656527D01*
X12983757Y-16856527D02*
X12993281Y-16847003D01*
X13012328Y-16818431D01*
X13021852Y-16799384D01*
X13031376Y-16770812D01*
X13040900Y-16723193D01*
X13040900Y-16685098D01*
X13031376Y-16637479D01*
X13021852Y-16608908D01*
X13012328Y-16589860D01*
X12993281Y-16561288D01*
X12983757Y-16551765D01*
D15*
X7816256Y-16989216D02*
X7816256Y-16918504D01*
X7745544Y-16918504D01*
X7745544Y-16989216D01*
X7816256Y-16989216D01*
D11*
X8193281Y-17044336D02*
X8078995Y-17044336D01*
X8136138Y-17044336D02*
X8136138Y-16844336D01*
X8117090Y-16872908D01*
X8098043Y-16891955D01*
X8078995Y-16901479D01*
X8278995Y-17025289D02*
X8288519Y-17034812D01*
X8278995Y-17044336D01*
X8269471Y-17034812D01*
X8278995Y-17025289D01*
X8278995Y-17044336D01*
X8412329Y-16844336D02*
X8431376Y-16844336D01*
X8450424Y-16853860D01*
X8459948Y-16863384D01*
X8469471Y-16882431D01*
X8478995Y-16920527D01*
X8478995Y-16968146D01*
X8469471Y-17006241D01*
X8459948Y-17025289D01*
X8450424Y-17034812D01*
X8431376Y-17044336D01*
X8412329Y-17044336D01*
X8393281Y-17034812D01*
X8383757Y-17025289D01*
X8374233Y-17006241D01*
X8364709Y-16968146D01*
X8364709Y-16920527D01*
X8374233Y-16882431D01*
X8383757Y-16863384D01*
X8393281Y-16853860D01*
X8412329Y-16844336D01*
X8602805Y-16844336D02*
X8621852Y-16844336D01*
X8640900Y-16853860D01*
X8650424Y-16863384D01*
X8659948Y-16882431D01*
X8669471Y-16920527D01*
X8669471Y-16968146D01*
X8659948Y-17006241D01*
X8650424Y-17025289D01*
X8640900Y-17034812D01*
X8621852Y-17044336D01*
X8602805Y-17044336D01*
X8583757Y-17034812D01*
X8574233Y-17025289D01*
X8564710Y-17006241D01*
X8555186Y-16968146D01*
X8555186Y-16920527D01*
X8564710Y-16882431D01*
X8574233Y-16863384D01*
X8583757Y-16853860D01*
X8602805Y-16844336D01*
X8793281Y-16844336D02*
X8812329Y-16844336D01*
X8831376Y-16853860D01*
X8840900Y-16863384D01*
X8850424Y-16882431D01*
X8859948Y-16920527D01*
X8859948Y-16968146D01*
X8850424Y-17006241D01*
X8840900Y-17025289D01*
X8831376Y-17034812D01*
X8812329Y-17044336D01*
X8793281Y-17044336D01*
X8774233Y-17034812D01*
X8764710Y-17025289D01*
X8755186Y-17006241D01*
X8745662Y-16968146D01*
X8745662Y-16920527D01*
X8755186Y-16882431D01*
X8764710Y-16863384D01*
X8774233Y-16853860D01*
X8793281Y-16844336D01*
X8945662Y-17044336D02*
X8945662Y-16911003D01*
X8945662Y-16930050D02*
X8955186Y-16920527D01*
X8974233Y-16911003D01*
X9002805Y-16911003D01*
X9021852Y-16920527D01*
X9031376Y-16939574D01*
X9031376Y-17044336D01*
X9031376Y-16939574D02*
X9040900Y-16920527D01*
X9059948Y-16911003D01*
X9088519Y-16911003D01*
X9107567Y-16920527D01*
X9117090Y-16939574D01*
X9117090Y-17044336D01*
X9212329Y-17044336D02*
X9212329Y-16911003D01*
X9212329Y-16930050D02*
X9221852Y-16920527D01*
X9240900Y-16911003D01*
X9269471Y-16911003D01*
X9288519Y-16920527D01*
X9298043Y-16939574D01*
X9298043Y-17044336D01*
X9298043Y-16939574D02*
X9307567Y-16920527D01*
X9326614Y-16911003D01*
X9355186Y-16911003D01*
X9374233Y-16920527D01*
X9383757Y-16939574D01*
X9383757Y-17044336D01*
X9774233Y-16834812D02*
X9602805Y-17091955D01*
X10031376Y-16844336D02*
X10050424Y-16844336D01*
X10069471Y-16853860D01*
X10078995Y-16863384D01*
X10088519Y-16882431D01*
X10098043Y-16920527D01*
X10098043Y-16968146D01*
X10088519Y-17006241D01*
X10078995Y-17025289D01*
X10069471Y-17034812D01*
X10050424Y-17044336D01*
X10031376Y-17044336D01*
X10012329Y-17034812D01*
X10002805Y-17025289D01*
X9993281Y-17006241D01*
X9983757Y-16968146D01*
X9983757Y-16920527D01*
X9993281Y-16882431D01*
X10002805Y-16863384D01*
X10012329Y-16853860D01*
X10031376Y-16844336D01*
X10183757Y-17025289D02*
X10193281Y-17034812D01*
X10183757Y-17044336D01*
X10174233Y-17034812D01*
X10183757Y-17025289D01*
X10183757Y-17044336D01*
X10317090Y-16844336D02*
X10336138Y-16844336D01*
X10355186Y-16853860D01*
X10364710Y-16863384D01*
X10374233Y-16882431D01*
X10383757Y-16920527D01*
X10383757Y-16968146D01*
X10374233Y-17006241D01*
X10364710Y-17025289D01*
X10355186Y-17034812D01*
X10336138Y-17044336D01*
X10317090Y-17044336D01*
X10298043Y-17034812D01*
X10288519Y-17025289D01*
X10278995Y-17006241D01*
X10269471Y-16968146D01*
X10269471Y-16920527D01*
X10278995Y-16882431D01*
X10288519Y-16863384D01*
X10298043Y-16853860D01*
X10317090Y-16844336D01*
X10450424Y-16844336D02*
X10574233Y-16844336D01*
X10507567Y-16920527D01*
X10536138Y-16920527D01*
X10555186Y-16930050D01*
X10564710Y-16939574D01*
X10574233Y-16958622D01*
X10574233Y-17006241D01*
X10564710Y-17025289D01*
X10555186Y-17034812D01*
X10536138Y-17044336D01*
X10478995Y-17044336D01*
X10459948Y-17034812D01*
X10450424Y-17025289D01*
X10669471Y-17044336D02*
X10707567Y-17044336D01*
X10726614Y-17034812D01*
X10736138Y-17025289D01*
X10755186Y-16996717D01*
X10764710Y-16958622D01*
X10764710Y-16882431D01*
X10755186Y-16863384D01*
X10745662Y-16853860D01*
X10726614Y-16844336D01*
X10688519Y-16844336D01*
X10669471Y-16853860D01*
X10659948Y-16863384D01*
X10650424Y-16882431D01*
X10650424Y-16930050D01*
X10659948Y-16949098D01*
X10669471Y-16958622D01*
X10688519Y-16968146D01*
X10726614Y-16968146D01*
X10745662Y-16958622D01*
X10755186Y-16949098D01*
X10764710Y-16930050D01*
X10936138Y-16911003D02*
X10936138Y-17044336D01*
X10888519Y-16834812D02*
X10840900Y-16977670D01*
X10964710Y-16977670D01*
X11031376Y-16844336D02*
X11031376Y-16882431D01*
X11107567Y-16844336D02*
X11107567Y-16882431D01*
X11402805Y-17120527D02*
X11393281Y-17111003D01*
X11374233Y-17082431D01*
X11364709Y-17063384D01*
X11355186Y-17034812D01*
X11345662Y-16987193D01*
X11345662Y-16949098D01*
X11355186Y-16901479D01*
X11364709Y-16872908D01*
X11374233Y-16853860D01*
X11393281Y-16825289D01*
X11402805Y-16815765D01*
X11564709Y-16844336D02*
X11526614Y-16844336D01*
X11507567Y-16853860D01*
X11498043Y-16863384D01*
X11478995Y-16891955D01*
X11469471Y-16930050D01*
X11469471Y-17006241D01*
X11478995Y-17025289D01*
X11488519Y-17034812D01*
X11507567Y-17044336D01*
X11545662Y-17044336D01*
X11564709Y-17034812D01*
X11574233Y-17025289D01*
X11583757Y-17006241D01*
X11583757Y-16958622D01*
X11574233Y-16939574D01*
X11564709Y-16930050D01*
X11545662Y-16920527D01*
X11507567Y-16920527D01*
X11488519Y-16930050D01*
X11478995Y-16939574D01*
X11469471Y-16958622D01*
X11698043Y-16930050D02*
X11678995Y-16920527D01*
X11669471Y-16911003D01*
X11659948Y-16891955D01*
X11659948Y-16882431D01*
X11669471Y-16863384D01*
X11678995Y-16853860D01*
X11698043Y-16844336D01*
X11736138Y-16844336D01*
X11755186Y-16853860D01*
X11764709Y-16863384D01*
X11774233Y-16882431D01*
X11774233Y-16891955D01*
X11764709Y-16911003D01*
X11755186Y-16920527D01*
X11736138Y-16930050D01*
X11698043Y-16930050D01*
X11678995Y-16939574D01*
X11669471Y-16949098D01*
X11659948Y-16968146D01*
X11659948Y-17006241D01*
X11669471Y-17025289D01*
X11678995Y-17034812D01*
X11698043Y-17044336D01*
X11736138Y-17044336D01*
X11755186Y-17034812D01*
X11764709Y-17025289D01*
X11774233Y-17006241D01*
X11774233Y-16968146D01*
X11764709Y-16949098D01*
X11755186Y-16939574D01*
X11736138Y-16930050D01*
X12012328Y-17044336D02*
X12012328Y-16844336D01*
X12098043Y-17044336D02*
X12098043Y-16939574D01*
X12088519Y-16920527D01*
X12069471Y-16911003D01*
X12040900Y-16911003D01*
X12021852Y-16920527D01*
X12012328Y-16930050D01*
X12221852Y-17044336D02*
X12202805Y-17034812D01*
X12193281Y-17025289D01*
X12183757Y-17006241D01*
X12183757Y-16949098D01*
X12193281Y-16930050D01*
X12202805Y-16920527D01*
X12221852Y-16911003D01*
X12250424Y-16911003D01*
X12269471Y-16920527D01*
X12278995Y-16930050D01*
X12288519Y-16949098D01*
X12288519Y-17006241D01*
X12278995Y-17025289D01*
X12269471Y-17034812D01*
X12250424Y-17044336D01*
X12221852Y-17044336D01*
X12402805Y-17044336D02*
X12383757Y-17034812D01*
X12374233Y-17015765D01*
X12374233Y-16844336D01*
X12555186Y-17034812D02*
X12536138Y-17044336D01*
X12498043Y-17044336D01*
X12478995Y-17034812D01*
X12469471Y-17015765D01*
X12469471Y-16939574D01*
X12478995Y-16920527D01*
X12498043Y-16911003D01*
X12536138Y-16911003D01*
X12555186Y-16920527D01*
X12564709Y-16939574D01*
X12564709Y-16958622D01*
X12469471Y-16977670D01*
X12640900Y-17034812D02*
X12659948Y-17044336D01*
X12698043Y-17044336D01*
X12717090Y-17034812D01*
X12726614Y-17015765D01*
X12726614Y-17006241D01*
X12717090Y-16987193D01*
X12698043Y-16977670D01*
X12669471Y-16977670D01*
X12650424Y-16968146D01*
X12640900Y-16949098D01*
X12640900Y-16939574D01*
X12650424Y-16920527D01*
X12669471Y-16911003D01*
X12698043Y-16911003D01*
X12717090Y-16920527D01*
X12793281Y-17120527D02*
X12802805Y-17111003D01*
X12821852Y-17082431D01*
X12831376Y-17063384D01*
X12840900Y-17034812D01*
X12850424Y-16987193D01*
X12850424Y-16949098D01*
X12840900Y-16901479D01*
X12831376Y-16872908D01*
X12821852Y-16853860D01*
X12802805Y-16825289D01*
X12793281Y-16815765D01*
D16*
X7775900Y-17272860D02*
X7830900Y-17217860D01*
X7775900Y-17162860D01*
X7720900Y-17217860D01*
X7775900Y-17272860D01*
D11*
X8193281Y-17308336D02*
X8078995Y-17308336D01*
X8136138Y-17308336D02*
X8136138Y-17108336D01*
X8117090Y-17136908D01*
X8098043Y-17155955D01*
X8078995Y-17165479D01*
X8278995Y-17289289D02*
X8288519Y-17298812D01*
X8278995Y-17308336D01*
X8269471Y-17298812D01*
X8278995Y-17289289D01*
X8278995Y-17308336D01*
X8478995Y-17308336D02*
X8364709Y-17308336D01*
X8421852Y-17308336D02*
X8421852Y-17108336D01*
X8402805Y-17136908D01*
X8383757Y-17155955D01*
X8364709Y-17165479D01*
X8602805Y-17108336D02*
X8621852Y-17108336D01*
X8640900Y-17117860D01*
X8650424Y-17127384D01*
X8659948Y-17146431D01*
X8669471Y-17184527D01*
X8669471Y-17232146D01*
X8659948Y-17270241D01*
X8650424Y-17289289D01*
X8640900Y-17298812D01*
X8621852Y-17308336D01*
X8602805Y-17308336D01*
X8583757Y-17298812D01*
X8574233Y-17289289D01*
X8564710Y-17270241D01*
X8555186Y-17232146D01*
X8555186Y-17184527D01*
X8564710Y-17146431D01*
X8574233Y-17127384D01*
X8583757Y-17117860D01*
X8602805Y-17108336D01*
X8793281Y-17108336D02*
X8812329Y-17108336D01*
X8831376Y-17117860D01*
X8840900Y-17127384D01*
X8850424Y-17146431D01*
X8859948Y-17184527D01*
X8859948Y-17232146D01*
X8850424Y-17270241D01*
X8840900Y-17289289D01*
X8831376Y-17298812D01*
X8812329Y-17308336D01*
X8793281Y-17308336D01*
X8774233Y-17298812D01*
X8764710Y-17289289D01*
X8755186Y-17270241D01*
X8745662Y-17232146D01*
X8745662Y-17184527D01*
X8755186Y-17146431D01*
X8764710Y-17127384D01*
X8774233Y-17117860D01*
X8793281Y-17108336D01*
X8945662Y-17308336D02*
X8945662Y-17175003D01*
X8945662Y-17194050D02*
X8955186Y-17184527D01*
X8974233Y-17175003D01*
X9002805Y-17175003D01*
X9021852Y-17184527D01*
X9031376Y-17203574D01*
X9031376Y-17308336D01*
X9031376Y-17203574D02*
X9040900Y-17184527D01*
X9059948Y-17175003D01*
X9088519Y-17175003D01*
X9107567Y-17184527D01*
X9117090Y-17203574D01*
X9117090Y-17308336D01*
X9212329Y-17308336D02*
X9212329Y-17175003D01*
X9212329Y-17194050D02*
X9221852Y-17184527D01*
X9240900Y-17175003D01*
X9269471Y-17175003D01*
X9288519Y-17184527D01*
X9298043Y-17203574D01*
X9298043Y-17308336D01*
X9298043Y-17203574D02*
X9307567Y-17184527D01*
X9326614Y-17175003D01*
X9355186Y-17175003D01*
X9374233Y-17184527D01*
X9383757Y-17203574D01*
X9383757Y-17308336D01*
X9774233Y-17098812D02*
X9602805Y-17355955D01*
X10031376Y-17108336D02*
X10050424Y-17108336D01*
X10069471Y-17117860D01*
X10078995Y-17127384D01*
X10088519Y-17146431D01*
X10098043Y-17184527D01*
X10098043Y-17232146D01*
X10088519Y-17270241D01*
X10078995Y-17289289D01*
X10069471Y-17298812D01*
X10050424Y-17308336D01*
X10031376Y-17308336D01*
X10012329Y-17298812D01*
X10002805Y-17289289D01*
X9993281Y-17270241D01*
X9983757Y-17232146D01*
X9983757Y-17184527D01*
X9993281Y-17146431D01*
X10002805Y-17127384D01*
X10012329Y-17117860D01*
X10031376Y-17108336D01*
X10183757Y-17289289D02*
X10193281Y-17298812D01*
X10183757Y-17308336D01*
X10174233Y-17298812D01*
X10183757Y-17289289D01*
X10183757Y-17308336D01*
X10317090Y-17108336D02*
X10336138Y-17108336D01*
X10355186Y-17117860D01*
X10364710Y-17127384D01*
X10374233Y-17146431D01*
X10383757Y-17184527D01*
X10383757Y-17232146D01*
X10374233Y-17270241D01*
X10364710Y-17289289D01*
X10355186Y-17298812D01*
X10336138Y-17308336D01*
X10317090Y-17308336D01*
X10298043Y-17298812D01*
X10288519Y-17289289D01*
X10278995Y-17270241D01*
X10269471Y-17232146D01*
X10269471Y-17184527D01*
X10278995Y-17146431D01*
X10288519Y-17127384D01*
X10298043Y-17117860D01*
X10317090Y-17108336D01*
X10555186Y-17175003D02*
X10555186Y-17308336D01*
X10507567Y-17098812D02*
X10459948Y-17241670D01*
X10583757Y-17241670D01*
X10640900Y-17108336D02*
X10764710Y-17108336D01*
X10698043Y-17184527D01*
X10726614Y-17184527D01*
X10745662Y-17194050D01*
X10755186Y-17203574D01*
X10764710Y-17222622D01*
X10764710Y-17270241D01*
X10755186Y-17289289D01*
X10745662Y-17298812D01*
X10726614Y-17308336D01*
X10669471Y-17308336D01*
X10650424Y-17298812D01*
X10640900Y-17289289D01*
X10831376Y-17108336D02*
X10955186Y-17108336D01*
X10888519Y-17184527D01*
X10917090Y-17184527D01*
X10936138Y-17194050D01*
X10945662Y-17203574D01*
X10955186Y-17222622D01*
X10955186Y-17270241D01*
X10945662Y-17289289D01*
X10936138Y-17298812D01*
X10917090Y-17308336D01*
X10859948Y-17308336D01*
X10840900Y-17298812D01*
X10831376Y-17289289D01*
X11031376Y-17108336D02*
X11031376Y-17146431D01*
X11107567Y-17108336D02*
X11107567Y-17146431D01*
X11402805Y-17384527D02*
X11393281Y-17375003D01*
X11374233Y-17346431D01*
X11364709Y-17327384D01*
X11355186Y-17298812D01*
X11345662Y-17251193D01*
X11345662Y-17213098D01*
X11355186Y-17165479D01*
X11364709Y-17136908D01*
X11374233Y-17117860D01*
X11393281Y-17089289D01*
X11402805Y-17079765D01*
X11564709Y-17175003D02*
X11564709Y-17308336D01*
X11517090Y-17098812D02*
X11469471Y-17241670D01*
X11593281Y-17241670D01*
X11821852Y-17308336D02*
X11821852Y-17108336D01*
X11907567Y-17308336D02*
X11907567Y-17203574D01*
X11898043Y-17184527D01*
X11878995Y-17175003D01*
X11850424Y-17175003D01*
X11831376Y-17184527D01*
X11821852Y-17194050D01*
X12031376Y-17308336D02*
X12012328Y-17298812D01*
X12002805Y-17289289D01*
X11993281Y-17270241D01*
X11993281Y-17213098D01*
X12002805Y-17194050D01*
X12012328Y-17184527D01*
X12031376Y-17175003D01*
X12059948Y-17175003D01*
X12078995Y-17184527D01*
X12088519Y-17194050D01*
X12098043Y-17213098D01*
X12098043Y-17270241D01*
X12088519Y-17289289D01*
X12078995Y-17298812D01*
X12059948Y-17308336D01*
X12031376Y-17308336D01*
X12212328Y-17308336D02*
X12193281Y-17298812D01*
X12183757Y-17279765D01*
X12183757Y-17108336D01*
X12364709Y-17298812D02*
X12345662Y-17308336D01*
X12307567Y-17308336D01*
X12288519Y-17298812D01*
X12278995Y-17279765D01*
X12278995Y-17203574D01*
X12288519Y-17184527D01*
X12307567Y-17175003D01*
X12345662Y-17175003D01*
X12364709Y-17184527D01*
X12374233Y-17203574D01*
X12374233Y-17222622D01*
X12278995Y-17241670D01*
X12450424Y-17298812D02*
X12469471Y-17308336D01*
X12507567Y-17308336D01*
X12526614Y-17298812D01*
X12536138Y-17279765D01*
X12536138Y-17270241D01*
X12526614Y-17251193D01*
X12507567Y-17241670D01*
X12478995Y-17241670D01*
X12459948Y-17232146D01*
X12450424Y-17213098D01*
X12450424Y-17203574D01*
X12459948Y-17184527D01*
X12478995Y-17175003D01*
X12507567Y-17175003D01*
X12526614Y-17184527D01*
X12602805Y-17384527D02*
X12612328Y-17375003D01*
X12631376Y-17346431D01*
X12640900Y-17327384D01*
X12650424Y-17298812D01*
X12659948Y-17251193D01*
X12659948Y-17213098D01*
X12650424Y-17165479D01*
X12640900Y-17136908D01*
X12631376Y-17117860D01*
X12612328Y-17089289D01*
X12602805Y-17079765D01*
D17*
X7660900Y-17396860D02*
X7830900Y-17566860D01*
X7830900Y-17396860D02*
X7660900Y-17566860D01*
X7830900Y-17481860D02*
G75*
G03*
X7830900Y-17481860I-85000J0D01*
G01*
D11*
X8193281Y-17572336D02*
X8078995Y-17572336D01*
X8136138Y-17572336D02*
X8136138Y-17372336D01*
X8117090Y-17400908D01*
X8098043Y-17419955D01*
X8078995Y-17429479D01*
X8278995Y-17553289D02*
X8288519Y-17562812D01*
X8278995Y-17572336D01*
X8269471Y-17562812D01*
X8278995Y-17553289D01*
X8278995Y-17572336D01*
X8355186Y-17372336D02*
X8488519Y-17372336D01*
X8402805Y-17572336D01*
X8602805Y-17372336D02*
X8621852Y-17372336D01*
X8640900Y-17381860D01*
X8650424Y-17391384D01*
X8659948Y-17410431D01*
X8669471Y-17448527D01*
X8669471Y-17496146D01*
X8659948Y-17534241D01*
X8650424Y-17553289D01*
X8640900Y-17562812D01*
X8621852Y-17572336D01*
X8602805Y-17572336D01*
X8583757Y-17562812D01*
X8574233Y-17553289D01*
X8564710Y-17534241D01*
X8555186Y-17496146D01*
X8555186Y-17448527D01*
X8564710Y-17410431D01*
X8574233Y-17391384D01*
X8583757Y-17381860D01*
X8602805Y-17372336D01*
X8793281Y-17372336D02*
X8812329Y-17372336D01*
X8831376Y-17381860D01*
X8840900Y-17391384D01*
X8850424Y-17410431D01*
X8859948Y-17448527D01*
X8859948Y-17496146D01*
X8850424Y-17534241D01*
X8840900Y-17553289D01*
X8831376Y-17562812D01*
X8812329Y-17572336D01*
X8793281Y-17572336D01*
X8774233Y-17562812D01*
X8764710Y-17553289D01*
X8755186Y-17534241D01*
X8745662Y-17496146D01*
X8745662Y-17448527D01*
X8755186Y-17410431D01*
X8764710Y-17391384D01*
X8774233Y-17381860D01*
X8793281Y-17372336D01*
X8945662Y-17572336D02*
X8945662Y-17439003D01*
X8945662Y-17458050D02*
X8955186Y-17448527D01*
X8974233Y-17439003D01*
X9002805Y-17439003D01*
X9021852Y-17448527D01*
X9031376Y-17467574D01*
X9031376Y-17572336D01*
X9031376Y-17467574D02*
X9040900Y-17448527D01*
X9059948Y-17439003D01*
X9088519Y-17439003D01*
X9107567Y-17448527D01*
X9117090Y-17467574D01*
X9117090Y-17572336D01*
X9212329Y-17572336D02*
X9212329Y-17439003D01*
X9212329Y-17458050D02*
X9221852Y-17448527D01*
X9240900Y-17439003D01*
X9269471Y-17439003D01*
X9288519Y-17448527D01*
X9298043Y-17467574D01*
X9298043Y-17572336D01*
X9298043Y-17467574D02*
X9307567Y-17448527D01*
X9326614Y-17439003D01*
X9355186Y-17439003D01*
X9374233Y-17448527D01*
X9383757Y-17467574D01*
X9383757Y-17572336D01*
X9774233Y-17362812D02*
X9602805Y-17619955D01*
X10031376Y-17372336D02*
X10050424Y-17372336D01*
X10069471Y-17381860D01*
X10078995Y-17391384D01*
X10088519Y-17410431D01*
X10098043Y-17448527D01*
X10098043Y-17496146D01*
X10088519Y-17534241D01*
X10078995Y-17553289D01*
X10069471Y-17562812D01*
X10050424Y-17572336D01*
X10031376Y-17572336D01*
X10012329Y-17562812D01*
X10002805Y-17553289D01*
X9993281Y-17534241D01*
X9983757Y-17496146D01*
X9983757Y-17448527D01*
X9993281Y-17410431D01*
X10002805Y-17391384D01*
X10012329Y-17381860D01*
X10031376Y-17372336D01*
X10183757Y-17553289D02*
X10193281Y-17562812D01*
X10183757Y-17572336D01*
X10174233Y-17562812D01*
X10183757Y-17553289D01*
X10183757Y-17572336D01*
X10317090Y-17372336D02*
X10336138Y-17372336D01*
X10355186Y-17381860D01*
X10364710Y-17391384D01*
X10374233Y-17410431D01*
X10383757Y-17448527D01*
X10383757Y-17496146D01*
X10374233Y-17534241D01*
X10364710Y-17553289D01*
X10355186Y-17562812D01*
X10336138Y-17572336D01*
X10317090Y-17572336D01*
X10298043Y-17562812D01*
X10288519Y-17553289D01*
X10278995Y-17534241D01*
X10269471Y-17496146D01*
X10269471Y-17448527D01*
X10278995Y-17410431D01*
X10288519Y-17391384D01*
X10298043Y-17381860D01*
X10317090Y-17372336D01*
X10555186Y-17372336D02*
X10517090Y-17372336D01*
X10498043Y-17381860D01*
X10488519Y-17391384D01*
X10469471Y-17419955D01*
X10459948Y-17458050D01*
X10459948Y-17534241D01*
X10469471Y-17553289D01*
X10478995Y-17562812D01*
X10498043Y-17572336D01*
X10536138Y-17572336D01*
X10555186Y-17562812D01*
X10564710Y-17553289D01*
X10574233Y-17534241D01*
X10574233Y-17486622D01*
X10564710Y-17467574D01*
X10555186Y-17458050D01*
X10536138Y-17448527D01*
X10498043Y-17448527D01*
X10478995Y-17458050D01*
X10469471Y-17467574D01*
X10459948Y-17486622D01*
X10745662Y-17372336D02*
X10707567Y-17372336D01*
X10688519Y-17381860D01*
X10678995Y-17391384D01*
X10659948Y-17419955D01*
X10650424Y-17458050D01*
X10650424Y-17534241D01*
X10659948Y-17553289D01*
X10669471Y-17562812D01*
X10688519Y-17572336D01*
X10726614Y-17572336D01*
X10745662Y-17562812D01*
X10755186Y-17553289D01*
X10764710Y-17534241D01*
X10764710Y-17486622D01*
X10755186Y-17467574D01*
X10745662Y-17458050D01*
X10726614Y-17448527D01*
X10688519Y-17448527D01*
X10669471Y-17458050D01*
X10659948Y-17467574D01*
X10650424Y-17486622D01*
X10859948Y-17572336D02*
X10898043Y-17572336D01*
X10917090Y-17562812D01*
X10926614Y-17553289D01*
X10945662Y-17524717D01*
X10955186Y-17486622D01*
X10955186Y-17410431D01*
X10945662Y-17391384D01*
X10936138Y-17381860D01*
X10917090Y-17372336D01*
X10878995Y-17372336D01*
X10859948Y-17381860D01*
X10850424Y-17391384D01*
X10840900Y-17410431D01*
X10840900Y-17458050D01*
X10850424Y-17477098D01*
X10859948Y-17486622D01*
X10878995Y-17496146D01*
X10917090Y-17496146D01*
X10936138Y-17486622D01*
X10945662Y-17477098D01*
X10955186Y-17458050D01*
X11031376Y-17372336D02*
X11031376Y-17410431D01*
X11107567Y-17372336D02*
X11107567Y-17410431D01*
X11402805Y-17648527D02*
X11393281Y-17639003D01*
X11374233Y-17610431D01*
X11364709Y-17591384D01*
X11355186Y-17562812D01*
X11345662Y-17515193D01*
X11345662Y-17477098D01*
X11355186Y-17429479D01*
X11364709Y-17400908D01*
X11374233Y-17381860D01*
X11393281Y-17353289D01*
X11402805Y-17343765D01*
X11564709Y-17439003D02*
X11564709Y-17572336D01*
X11517090Y-17362812D02*
X11469471Y-17505670D01*
X11593281Y-17505670D01*
X11821852Y-17572336D02*
X11821852Y-17372336D01*
X11907567Y-17572336D02*
X11907567Y-17467574D01*
X11898043Y-17448527D01*
X11878995Y-17439003D01*
X11850424Y-17439003D01*
X11831376Y-17448527D01*
X11821852Y-17458050D01*
X12031376Y-17572336D02*
X12012328Y-17562812D01*
X12002805Y-17553289D01*
X11993281Y-17534241D01*
X11993281Y-17477098D01*
X12002805Y-17458050D01*
X12012328Y-17448527D01*
X12031376Y-17439003D01*
X12059948Y-17439003D01*
X12078995Y-17448527D01*
X12088519Y-17458050D01*
X12098043Y-17477098D01*
X12098043Y-17534241D01*
X12088519Y-17553289D01*
X12078995Y-17562812D01*
X12059948Y-17572336D01*
X12031376Y-17572336D01*
X12212328Y-17572336D02*
X12193281Y-17562812D01*
X12183757Y-17543765D01*
X12183757Y-17372336D01*
X12364709Y-17562812D02*
X12345662Y-17572336D01*
X12307567Y-17572336D01*
X12288519Y-17562812D01*
X12278995Y-17543765D01*
X12278995Y-17467574D01*
X12288519Y-17448527D01*
X12307567Y-17439003D01*
X12345662Y-17439003D01*
X12364709Y-17448527D01*
X12374233Y-17467574D01*
X12374233Y-17486622D01*
X12278995Y-17505670D01*
X12450424Y-17562812D02*
X12469471Y-17572336D01*
X12507567Y-17572336D01*
X12526614Y-17562812D01*
X12536138Y-17543765D01*
X12536138Y-17534241D01*
X12526614Y-17515193D01*
X12507567Y-17505670D01*
X12478995Y-17505670D01*
X12459948Y-17496146D01*
X12450424Y-17477098D01*
X12450424Y-17467574D01*
X12459948Y-17448527D01*
X12478995Y-17439003D01*
X12507567Y-17439003D01*
X12526614Y-17448527D01*
X12602805Y-17648527D02*
X12612328Y-17639003D01*
X12631376Y-17610431D01*
X12640900Y-17591384D01*
X12650424Y-17562812D01*
X12659948Y-17515193D01*
X12659948Y-17477098D01*
X12650424Y-17429479D01*
X12640900Y-17400908D01*
X12631376Y-17381860D01*
X12612328Y-17353289D01*
X12602805Y-17343765D01*
M02*
