%TF.GenerationSoftware,KiCad,Pcbnew,(6.0.5)*%
%TF.CreationDate,2025-02-02T15:21:23-05:00*%
%TF.ProjectId,tag_Heiserman,7461675f-4865-4697-9365-726d616e2e6b,rev?*%
%TF.SameCoordinates,Original*%
%TF.FileFunction,Copper,L1,Top*%
%TF.FilePolarity,Positive*%
%FSLAX46Y46*%
G04 Gerber Fmt 4.6, Leading zero omitted, Abs format (unit mm)*
G04 Created by KiCad (PCBNEW (6.0.5)) date 2025-02-02 15:21:23*
%MOMM*%
%LPD*%
G01*
G04 APERTURE LIST*
G04 Aperture macros list*
%AMRoundRect*
0 Rectangle with rounded corners*
0 $1 Rounding radius*
0 $2 $3 $4 $5 $6 $7 $8 $9 X,Y pos of 4 corners*
0 Add a 4 corners polygon primitive as box body*
4,1,4,$2,$3,$4,$5,$6,$7,$8,$9,$2,$3,0*
0 Add four circle primitives for the rounded corners*
1,1,$1+$1,$2,$3*
1,1,$1+$1,$4,$5*
1,1,$1+$1,$6,$7*
1,1,$1+$1,$8,$9*
0 Add four rect primitives between the rounded corners*
20,1,$1+$1,$2,$3,$4,$5,0*
20,1,$1+$1,$4,$5,$6,$7,0*
20,1,$1+$1,$6,$7,$8,$9,0*
20,1,$1+$1,$8,$9,$2,$3,0*%
G04 Aperture macros list end*
%TA.AperFunction,ComponentPad*%
%ADD10R,1.600000X1.600000*%
%TD*%
%TA.AperFunction,ComponentPad*%
%ADD11O,1.600000X1.600000*%
%TD*%
%TA.AperFunction,ComponentPad*%
%ADD12O,1.700000X1.700000*%
%TD*%
%TA.AperFunction,ComponentPad*%
%ADD13R,1.700000X1.700000*%
%TD*%
%TA.AperFunction,ComponentPad*%
%ADD14C,1.400000*%
%TD*%
%TA.AperFunction,ComponentPad*%
%ADD15O,1.400000X1.400000*%
%TD*%
%TA.AperFunction,ComponentPad*%
%ADD16C,1.600000*%
%TD*%
%TA.AperFunction,ComponentPad*%
%ADD17RoundRect,0.250001X-1.099999X-1.099999X1.099999X-1.099999X1.099999X1.099999X-1.099999X1.099999X0*%
%TD*%
%TA.AperFunction,ComponentPad*%
%ADD18C,2.700000*%
%TD*%
%TA.AperFunction,ComponentPad*%
%ADD19RoundRect,0.250000X0.600000X-0.600000X0.600000X0.600000X-0.600000X0.600000X-0.600000X-0.600000X0*%
%TD*%
%TA.AperFunction,ComponentPad*%
%ADD20C,1.700000*%
%TD*%
%TA.AperFunction,ComponentPad*%
%ADD21C,2.000000*%
%TD*%
%TA.AperFunction,ViaPad*%
%ADD22C,0.800000*%
%TD*%
%TA.AperFunction,Conductor*%
%ADD23C,0.750000*%
%TD*%
%TA.AperFunction,Conductor*%
%ADD24C,0.250000*%
%TD*%
G04 APERTURE END LIST*
D10*
%TO.P,U4,1,~{R}*%
%TO.N,Net-(R5-Pad2)*%
X126329200Y-140223400D03*
D11*
%TO.P,U4,2,J*%
%TO.N,GND*%
X128869200Y-140223400D03*
%TO.P,U4,3,~{K}*%
%TO.N,VCC*%
X131409200Y-140223400D03*
%TO.P,U4,4,C*%
%TO.N,Net-(U4-Pad4)*%
X133949200Y-140223400D03*
%TO.P,U4,5,~{S}*%
%TO.N,VCC*%
X136489200Y-140223400D03*
%TO.P,U4,6,Q*%
%TO.N,Net-(C16-Pad2)*%
X139029200Y-140223400D03*
%TO.P,U4,7,~{Q}*%
%TO.N,unconnected-(U4-Pad7)*%
X141569200Y-140223400D03*
%TO.P,U4,8,GND*%
%TO.N,GND*%
X144109200Y-140223400D03*
%TO.P,U4,9,~{Q}*%
%TO.N,unconnected-(U4-Pad9)*%
X144109200Y-132603400D03*
%TO.P,U4,10,Q*%
%TO.N,unconnected-(U4-Pad10)*%
X141569200Y-132603400D03*
%TO.P,U4,11,~{S}*%
%TO.N,unconnected-(U4-Pad11)*%
X139029200Y-132603400D03*
%TO.P,U4,12,C*%
%TO.N,unconnected-(U4-Pad12)*%
X136489200Y-132603400D03*
%TO.P,U4,13,~{K}*%
%TO.N,unconnected-(U4-Pad13)*%
X133949200Y-132603400D03*
%TO.P,U4,14,J*%
%TO.N,unconnected-(U4-Pad14)*%
X131409200Y-132603400D03*
%TO.P,U4,15,~{R}*%
%TO.N,unconnected-(U4-Pad15)*%
X128869200Y-132603400D03*
%TO.P,U4,16,VCC*%
%TO.N,VCC*%
X126329200Y-132603400D03*
%TD*%
D10*
%TO.P,U9,1,GND*%
%TO.N,GND*%
X168462800Y-114798000D03*
D11*
%TO.P,U9,2,TR*%
%TO.N,Net-(C16-Pad1)*%
X171002800Y-114798000D03*
%TO.P,U9,3,Q*%
%TO.N,Net-(U6-Pad10)*%
X173542800Y-114798000D03*
%TO.P,U9,4,R*%
%TO.N,VCC*%
X176082800Y-114798000D03*
%TO.P,U9,5,CV*%
%TO.N,unconnected-(U9-Pad5)*%
X176082800Y-107178000D03*
%TO.P,U9,6,THR*%
%TO.N,Net-(C21-Pad1)*%
X173542800Y-107178000D03*
%TO.P,U9,7,DIS*%
X171002800Y-107178000D03*
%TO.P,U9,8,VCC*%
%TO.N,VCC*%
X168462800Y-107178000D03*
%TD*%
D12*
%TO.P,RV4,3,3*%
%TO.N,VCC*%
X159400000Y-147736800D03*
%TO.P,RV4,2,2*%
X156860000Y-147736800D03*
D13*
%TO.P,RV4,1,1*%
%TO.N,Net-(R1-Pad1)*%
X154320000Y-147736800D03*
%TD*%
D12*
%TO.P,RV3,3,3*%
%TO.N,VCC*%
X93522800Y-146928600D03*
%TO.P,RV3,2,2*%
X90982800Y-146928600D03*
D13*
%TO.P,RV3,1,1*%
%TO.N,Net-(R4-Pad1)*%
X88442800Y-146928600D03*
%TD*%
D12*
%TO.P,RV2,3,3*%
%TO.N,VCC*%
X173050200Y-147624800D03*
%TO.P,RV2,2,2*%
X170510200Y-147624800D03*
D13*
%TO.P,RV2,1,1*%
%TO.N,Net-(R2-Pad1)*%
X167970200Y-147624800D03*
%TD*%
D12*
%TO.P,RV1,3,3*%
%TO.N,VCC*%
X106136200Y-146939000D03*
%TO.P,RV1,2,2*%
X103596200Y-146939000D03*
D13*
%TO.P,RV1,1,1*%
%TO.N,Net-(R3-Pad1)*%
X101056200Y-146939000D03*
%TD*%
D14*
%TO.P,R11,1*%
%TO.N,VCC*%
X160578800Y-102362000D03*
D15*
%TO.P,R11,2*%
%TO.N,Net-(C21-Pad1)*%
X168198800Y-102362000D03*
%TD*%
D14*
%TO.P,R10,1*%
%TO.N,VCC*%
X150469600Y-127685800D03*
D15*
%TO.P,R10,2*%
%TO.N,Net-(C16-Pad1)*%
X158089600Y-127685800D03*
%TD*%
D13*
%TO.P,J3,1,Pin_1*%
%TO.N,Net-(J3-Pad1)*%
X161838400Y-96271000D03*
D12*
%TO.P,J3,2,Pin_2*%
%TO.N,1V*%
X161838400Y-93731000D03*
%TO.P,J3,3,Pin_3*%
%TO.N,Net-(J3-Pad1)*%
X164378400Y-96271000D03*
%TO.P,J3,4,Pin_4*%
%TO.N,2V*%
X164378400Y-93731000D03*
%TO.P,J3,5,Pin_5*%
%TO.N,Net-(J3-Pad1)*%
X166918400Y-96271000D03*
%TO.P,J3,6,Pin_6*%
%TO.N,4V*%
X166918400Y-93731000D03*
%TO.P,J3,7,Pin_7*%
%TO.N,Net-(J3-Pad1)*%
X169458400Y-96271000D03*
%TO.P,J3,8,Pin_8*%
%TO.N,8V*%
X169458400Y-93731000D03*
%TO.P,J3,9,Pin_9*%
%TO.N,Net-(J3-Pad1)*%
X171998400Y-96271000D03*
%TO.P,J3,10,Pin_10*%
%TO.N,16V*%
X171998400Y-93731000D03*
%TO.P,J3,11,Pin_11*%
%TO.N,Net-(J3-Pad1)*%
X174538400Y-96271000D03*
%TO.P,J3,12,Pin_12*%
%TO.N,32V*%
X174538400Y-93731000D03*
%TO.P,J3,13,Pin_13*%
%TO.N,Net-(J3-Pad1)*%
X177078400Y-96271000D03*
%TO.P,J3,14,Pin_14*%
%TO.N,64V*%
X177078400Y-93731000D03*
%TO.P,J3,15,Pin_15*%
%TO.N,Net-(J3-Pad1)*%
X179618400Y-96271000D03*
%TO.P,J3,16,Pin_16*%
%TO.N,128V*%
X179618400Y-93731000D03*
%TD*%
D10*
%TO.P,D1,1,K*%
%TO.N,VCC*%
X149174200Y-107238800D03*
D11*
%TO.P,D1,2,A*%
%TO.N,Net-(C16-Pad1)*%
X156794200Y-107238800D03*
%TD*%
D10*
%TO.P,C21,1*%
%TO.N,Net-(C21-Pad1)*%
X177266600Y-101004488D03*
D16*
%TO.P,C21,2*%
%TO.N,GND*%
X177266600Y-103504488D03*
%TD*%
%TO.P,C18,1*%
%TO.N,VCC*%
X163296600Y-112222600D03*
%TO.P,C18,2*%
%TO.N,GND*%
X163296600Y-109722600D03*
%TD*%
%TO.P,C16,1*%
%TO.N,Net-(C16-Pad1)*%
X152877200Y-113563400D03*
%TO.P,C16,2*%
%TO.N,Net-(C16-Pad2)*%
X155377200Y-113563400D03*
%TD*%
D15*
%TO.P,R3,2*%
%TO.N,Net-(C9-Pad1)*%
X85217000Y-128955800D03*
D14*
%TO.P,R3,1*%
%TO.N,Net-(R3-Pad1)*%
X85217000Y-136575800D03*
%TD*%
D15*
%TO.P,R7,2*%
%TO.N,GND*%
X87249000Y-100787200D03*
D14*
%TO.P,R7,1*%
%TO.N,Net-(C13-Pad2)*%
X87249000Y-93167200D03*
%TD*%
D11*
%TO.P,U6,14,VCC*%
%TO.N,VCC*%
X162326400Y-133797200D03*
%TO.P,U6,13*%
%TO.N,GND*%
X164866400Y-133797200D03*
%TO.P,U6,12*%
X167406400Y-133797200D03*
%TO.P,U6,11*%
%TO.N,unconnected-(U6-Pad11)*%
X169946400Y-133797200D03*
%TO.P,U6,10*%
%TO.N,Net-(U6-Pad10)*%
X172486400Y-133797200D03*
%TO.P,U6,9*%
%TO.N,Net-(J3-Pad1)*%
X175026400Y-133797200D03*
%TO.P,U6,8*%
%TO.N,AUDIN*%
X177566400Y-133797200D03*
%TO.P,U6,7,GND*%
%TO.N,GND*%
X177566400Y-141417200D03*
%TO.P,U6,6*%
%TO.N,Net-(U4-Pad4)*%
X175026400Y-141417200D03*
%TO.P,U6,5*%
%TO.N,Net-(U6-Pad5)*%
X172486400Y-141417200D03*
%TO.P,U6,4*%
%TO.N,Net-(U6-Pad4)*%
X169946400Y-141417200D03*
%TO.P,U6,3*%
%TO.N,GVID*%
X167406400Y-141417200D03*
%TO.P,U6,2*%
%TO.N,Net-(U6-Pad1)*%
X164866400Y-141417200D03*
D10*
%TO.P,U6,1*%
X162326400Y-141417200D03*
%TD*%
D16*
%TO.P,C15,2*%
%TO.N,GND*%
X94081600Y-101580000D03*
%TO.P,C15,1*%
%TO.N,VCC*%
X94081600Y-99080000D03*
%TD*%
%TO.P,C10,2*%
%TO.N,GND*%
X104673400Y-124216800D03*
%TO.P,C10,1*%
%TO.N,Net-(C10-Pad1)*%
X104673400Y-121716800D03*
%TD*%
%TO.P,C11,2*%
%TO.N,Net-(C11-Pad2)*%
X137140000Y-123291600D03*
%TO.P,C11,1*%
%TO.N,Net-(C11-Pad1)*%
X134640000Y-123291600D03*
%TD*%
D17*
%TO.P,J1,1,Pin_1*%
%TO.N,VCC*%
X89126100Y-80069600D03*
D18*
%TO.P,J1,2,Pin_2*%
%TO.N,GND*%
X93086100Y-80069600D03*
%TO.P,J1,3,Pin_3*%
X97046100Y-80069600D03*
%TO.P,J1,4,Pin_4*%
%TO.N,VCC*%
X101006100Y-80069600D03*
%TD*%
D16*
%TO.P,C4,2*%
%TO.N,GND*%
X84963000Y-122896000D03*
%TO.P,C4,1*%
%TO.N,Net-(C4-Pad1)*%
X84963000Y-120396000D03*
%TD*%
%TO.P,C2,2*%
%TO.N,GND*%
X114717200Y-140284200D03*
%TO.P,C2,1*%
%TO.N,Net-(C2-Pad1)*%
X112217200Y-140284200D03*
%TD*%
%TO.P,C20,2*%
%TO.N,GND*%
X138856400Y-93243400D03*
%TO.P,C20,1*%
%TO.N,VCC*%
X141356400Y-93243400D03*
%TD*%
D15*
%TO.P,R5,2*%
%TO.N,Net-(R5-Pad2)*%
X122885200Y-146735800D03*
D14*
%TO.P,R5,1*%
%TO.N,VCC*%
X115265200Y-146735800D03*
%TD*%
D16*
%TO.P,C7,2*%
%TO.N,GND*%
X124556200Y-123734200D03*
%TO.P,C7,1*%
%TO.N,Net-(C7-Pad1)*%
X124556200Y-121234200D03*
%TD*%
%TO.P,C14,2*%
%TO.N,Net-(C14-Pad2)*%
X126161800Y-109982513D03*
D10*
%TO.P,C14,1*%
%TO.N,Net-(C14-Pad1)*%
X126161800Y-112482513D03*
%TD*%
D15*
%TO.P,R8,2*%
%TO.N,GND*%
X117119400Y-91922600D03*
D14*
%TO.P,R8,1*%
%TO.N,Net-(C11-Pad1)*%
X109499400Y-91922600D03*
%TD*%
D16*
%TO.P,C6,2*%
%TO.N,GND*%
X113532600Y-111607600D03*
%TO.P,C6,1*%
%TO.N,VCC*%
X116032600Y-111607600D03*
%TD*%
D19*
%TO.P,J2,1,Pin_1*%
%TO.N,unconnected-(J2-Pad1)*%
X116357400Y-82057900D03*
D20*
%TO.P,J2,2,Pin_2*%
%TO.N,1V*%
X116357400Y-79517900D03*
%TO.P,J2,3,Pin_3*%
%TO.N,unconnected-(J2-Pad3)*%
X118897400Y-82057900D03*
%TO.P,J2,4,Pin_4*%
%TO.N,2V*%
X118897400Y-79517900D03*
%TO.P,J2,5,Pin_5*%
%TO.N,HRST*%
X121437400Y-82057900D03*
%TO.P,J2,6,Pin_6*%
%TO.N,4V*%
X121437400Y-79517900D03*
%TO.P,J2,7,Pin_7*%
%TO.N,unconnected-(J2-Pad7)*%
X123977400Y-82057900D03*
%TO.P,J2,8,Pin_8*%
%TO.N,8V*%
X123977400Y-79517900D03*
%TO.P,J2,9,Pin_9*%
%TO.N,unconnected-(J2-Pad9)*%
X126517400Y-82057900D03*
%TO.P,J2,10,Pin_10*%
%TO.N,16V*%
X126517400Y-79517900D03*
%TO.P,J2,11,Pin_11*%
%TO.N,unconnected-(J2-Pad11)*%
X129057400Y-82057900D03*
%TO.P,J2,12,Pin_12*%
%TO.N,32V*%
X129057400Y-79517900D03*
%TO.P,J2,13,Pin_13*%
%TO.N,unconnected-(J2-Pad13)*%
X131597400Y-82057900D03*
%TO.P,J2,14,Pin_14*%
%TO.N,64V*%
X131597400Y-79517900D03*
%TO.P,J2,15,Pin_15*%
%TO.N,AUDIN*%
X134137400Y-82057900D03*
%TO.P,J2,16,Pin_16*%
%TO.N,128V*%
X134137400Y-79517900D03*
%TO.P,J2,17,Pin_17*%
%TO.N,unconnected-(J2-Pad17)*%
X136677400Y-82057900D03*
%TO.P,J2,18,Pin_18*%
%TO.N,256V*%
X136677400Y-79517900D03*
%TO.P,J2,19,Pin_19*%
%TO.N,unconnected-(J2-Pad19)*%
X139217400Y-82057900D03*
%TO.P,J2,20,Pin_20*%
%TO.N,unconnected-(J2-Pad20)*%
X139217400Y-79517900D03*
%TO.P,J2,21,Pin_21*%
%TO.N,unconnected-(J2-Pad21)*%
X141757400Y-82057900D03*
%TO.P,J2,22,Pin_22*%
%TO.N,unconnected-(J2-Pad22)*%
X141757400Y-79517900D03*
%TO.P,J2,23,Pin_23*%
%TO.N,unconnected-(J2-Pad23)*%
X144297400Y-82057900D03*
%TO.P,J2,24,Pin_24*%
%TO.N,unconnected-(J2-Pad24)*%
X144297400Y-79517900D03*
%TO.P,J2,25,Pin_25*%
%TO.N,unconnected-(J2-Pad25)*%
X146837400Y-82057900D03*
%TO.P,J2,26,Pin_26*%
%TO.N,unconnected-(J2-Pad26)*%
X146837400Y-79517900D03*
%TO.P,J2,27,Pin_27*%
%TO.N,unconnected-(J2-Pad27)*%
X149377400Y-82057900D03*
%TO.P,J2,28,Pin_28*%
%TO.N,unconnected-(J2-Pad28)*%
X149377400Y-79517900D03*
%TO.P,J2,29,Pin_29*%
%TO.N,GVID*%
X151917400Y-82057900D03*
%TO.P,J2,30,Pin_30*%
%TO.N,unconnected-(J2-Pad30)*%
X151917400Y-79517900D03*
%TO.P,J2,31,Pin_31*%
%TO.N,unconnected-(J2-Pad31)*%
X154457400Y-82057900D03*
%TO.P,J2,32,Pin_32*%
%TO.N,unconnected-(J2-Pad32)*%
X154457400Y-79517900D03*
%TO.P,J2,33,Pin_33*%
%TO.N,unconnected-(J2-Pad33)*%
X156997400Y-82057900D03*
%TO.P,J2,34,Pin_34*%
%TO.N,unconnected-(J2-Pad34)*%
X156997400Y-79517900D03*
%TO.P,J2,35,Pin_35*%
%TO.N,VRST*%
X159537400Y-82057900D03*
%TO.P,J2,36,Pin_36*%
%TO.N,unconnected-(J2-Pad36)*%
X159537400Y-79517900D03*
%TO.P,J2,37,Pin_37*%
%TO.N,unconnected-(J2-Pad37)*%
X162077400Y-82057900D03*
%TO.P,J2,38,Pin_38*%
%TO.N,unconnected-(J2-Pad38)*%
X162077400Y-79517900D03*
%TO.P,J2,39,Pin_39*%
%TO.N,unconnected-(J2-Pad39)*%
X164617400Y-82057900D03*
%TO.P,J2,40,Pin_40*%
%TO.N,unconnected-(J2-Pad40)*%
X164617400Y-79517900D03*
%TD*%
D16*
%TO.P,C1,2*%
%TO.N,GND*%
X94406400Y-140004800D03*
%TO.P,C1,1*%
%TO.N,Net-(C1-Pad1)*%
X96906400Y-140004800D03*
%TD*%
D15*
%TO.P,R1,2*%
%TO.N,Net-(C8-Pad1)*%
X140868400Y-146989800D03*
D14*
%TO.P,R1,1*%
%TO.N,Net-(R1-Pad1)*%
X148488400Y-146989800D03*
%TD*%
D16*
%TO.P,C12,2*%
%TO.N,Net-(C12-Pad2)*%
X147350800Y-123164600D03*
%TO.P,C12,1*%
%TO.N,Net-(C12-Pad1)*%
X144850800Y-123164600D03*
%TD*%
D10*
%TO.P,U1,1*%
%TO.N,HRST*%
X99436000Y-104739600D03*
D11*
%TO.P,U1,2*%
%TO.N,Net-(U1-Pad2)*%
X101976000Y-104739600D03*
%TO.P,U1,3*%
%TO.N,VRST*%
X104516000Y-104739600D03*
%TO.P,U1,4*%
%TO.N,Net-(U1-Pad4)*%
X107056000Y-104739600D03*
%TO.P,U1,5*%
%TO.N,Net-(C12-Pad1)*%
X109596000Y-104739600D03*
%TO.P,U1,6*%
%TO.N,Net-(U1-Pad6)*%
X112136000Y-104739600D03*
%TO.P,U1,7,GND*%
%TO.N,GND*%
X114676000Y-104739600D03*
%TO.P,U1,8*%
%TO.N,Net-(U1-Pad8)*%
X114676000Y-97119600D03*
%TO.P,U1,9*%
%TO.N,Net-(C11-Pad1)*%
X112136000Y-97119600D03*
%TO.P,U1,10*%
%TO.N,Net-(U1-Pad10)*%
X109596000Y-97119600D03*
%TO.P,U1,11*%
%TO.N,Net-(C14-Pad2)*%
X107056000Y-97119600D03*
%TO.P,U1,12*%
%TO.N,Net-(U1-Pad12)*%
X104516000Y-97119600D03*
%TO.P,U1,13*%
%TO.N,Net-(C13-Pad2)*%
X101976000Y-97119600D03*
%TO.P,U1,14,VCC*%
%TO.N,VCC*%
X99436000Y-97119600D03*
%TD*%
%TO.P,U2,14,VCC*%
%TO.N,VCC*%
X98587400Y-116581000D03*
%TO.P,U2,13,DIS*%
%TO.N,Net-(C10-Pad1)*%
X98587400Y-119121000D03*
%TO.P,U2,12,THR*%
X98587400Y-121661000D03*
%TO.P,U2,11,CV*%
%TO.N,Net-(C1-Pad1)*%
X98587400Y-124201000D03*
%TO.P,U2,10,R*%
%TO.N,Net-(C16-Pad2)*%
X98587400Y-126741000D03*
%TO.P,U2,9,Q*%
%TO.N,Net-(U2-Pad9)*%
X98587400Y-129281000D03*
%TO.P,U2,8,TR*%
%TO.N,Net-(U1-Pad4)*%
X98587400Y-131821000D03*
%TO.P,U2,7,GND*%
%TO.N,GND*%
X90967400Y-131821000D03*
%TO.P,U2,6,TR*%
%TO.N,Net-(U1-Pad2)*%
X90967400Y-129281000D03*
%TO.P,U2,5,Q*%
%TO.N,Net-(U2-Pad5)*%
X90967400Y-126741000D03*
%TO.P,U2,4,R*%
%TO.N,Net-(C16-Pad2)*%
X90967400Y-124201000D03*
%TO.P,U2,3,CV*%
%TO.N,Net-(C4-Pad1)*%
X90967400Y-121661000D03*
%TO.P,U2,2,THR*%
%TO.N,Net-(C9-Pad1)*%
X90967400Y-119121000D03*
D10*
%TO.P,U2,1,DIS*%
X90967400Y-116581000D03*
%TD*%
D15*
%TO.P,R4,2*%
%TO.N,Net-(C10-Pad1)*%
X104190800Y-129794000D03*
D14*
%TO.P,R4,1*%
%TO.N,Net-(R4-Pad1)*%
X104190800Y-137414000D03*
%TD*%
D16*
%TO.P,C13,2*%
%TO.N,Net-(C13-Pad2)*%
X152958800Y-99619313D03*
D10*
%TO.P,C13,1*%
%TO.N,Net-(C13-Pad1)*%
X152958800Y-102119313D03*
%TD*%
D16*
%TO.P,C5,2*%
%TO.N,GND*%
X93923800Y-111887000D03*
%TO.P,C5,1*%
%TO.N,VCC*%
X96423800Y-111887000D03*
%TD*%
D11*
%TO.P,U7,14,VCC*%
%TO.N,VCC*%
X161818400Y-120005000D03*
%TO.P,U7,13*%
%TO.N,unconnected-(U7-Pad13)*%
X164358400Y-120005000D03*
%TO.P,U7,12*%
%TO.N,GND*%
X166898400Y-120005000D03*
%TO.P,U7,11*%
X169438400Y-120005000D03*
%TO.P,U7,10*%
%TO.N,Net-(U6-Pad1)*%
X171978400Y-120005000D03*
%TO.P,U7,9*%
%TO.N,Net-(U6-Pad4)*%
X174518400Y-120005000D03*
%TO.P,U7,8*%
%TO.N,Net-(U6-Pad5)*%
X177058400Y-120005000D03*
%TO.P,U7,7,GND*%
%TO.N,GND*%
X177058400Y-127625000D03*
%TO.P,U7,6*%
%TO.N,Net-(U1-Pad12)*%
X174518400Y-127625000D03*
%TO.P,U7,5*%
%TO.N,Net-(U1-Pad6)*%
X171978400Y-127625000D03*
%TO.P,U7,4*%
%TO.N,Net-(U6-Pad4)*%
X169438400Y-127625000D03*
%TO.P,U7,3*%
%TO.N,Net-(U1-Pad10)*%
X166898400Y-127625000D03*
%TO.P,U7,2*%
%TO.N,Net-(U1-Pad8)*%
X164358400Y-127625000D03*
D10*
%TO.P,U7,1*%
%TO.N,Net-(U6-Pad5)*%
X161818400Y-127625000D03*
%TD*%
D15*
%TO.P,R9,2*%
%TO.N,GND*%
X95097600Y-91922600D03*
D14*
%TO.P,R9,1*%
%TO.N,Net-(C14-Pad2)*%
X102717600Y-91922600D03*
%TD*%
D21*
%TO.P,SW1,2,2*%
%TO.N,GND*%
X129236400Y-150611400D03*
X135736400Y-150611400D03*
%TO.P,SW1,1,1*%
%TO.N,Net-(R5-Pad2)*%
X129236400Y-146111400D03*
X135736400Y-146111400D03*
%TD*%
D16*
%TO.P,C22,2*%
%TO.N,GND*%
X121945400Y-134386000D03*
%TO.P,C22,1*%
%TO.N,VCC*%
X121945400Y-136886000D03*
%TD*%
%TO.P,C9,2*%
%TO.N,GND*%
X85318600Y-109189200D03*
%TO.P,C9,1*%
%TO.N,Net-(C9-Pad1)*%
X85318600Y-111689200D03*
%TD*%
D11*
%TO.P,U3,14,VCC*%
%TO.N,VCC*%
X118221600Y-116530200D03*
%TO.P,U3,13,DIS*%
%TO.N,Net-(C7-Pad1)*%
X118221600Y-119070200D03*
%TO.P,U3,12,THR*%
X118221600Y-121610200D03*
%TO.P,U3,11,CV*%
%TO.N,Net-(C3-Pad1)*%
X118221600Y-124150200D03*
%TO.P,U3,10,R*%
%TO.N,Net-(C16-Pad2)*%
X118221600Y-126690200D03*
%TO.P,U3,9,Q*%
%TO.N,Net-(U3-Pad9)*%
X118221600Y-129230200D03*
%TO.P,U3,8,TR*%
%TO.N,Net-(U1-Pad4)*%
X118221600Y-131770200D03*
%TO.P,U3,7,GND*%
%TO.N,GND*%
X110601600Y-131770200D03*
%TO.P,U3,6,TR*%
%TO.N,Net-(U1-Pad2)*%
X110601600Y-129230200D03*
%TO.P,U3,5,Q*%
%TO.N,Net-(U3-Pad5)*%
X110601600Y-126690200D03*
%TO.P,U3,4,R*%
%TO.N,Net-(C16-Pad2)*%
X110601600Y-124150200D03*
%TO.P,U3,3,CV*%
%TO.N,Net-(C2-Pad1)*%
X110601600Y-121610200D03*
%TO.P,U3,2,THR*%
%TO.N,Net-(C8-Pad1)*%
X110601600Y-119070200D03*
D10*
%TO.P,U3,1,DIS*%
X110601600Y-116530200D03*
%TD*%
D16*
%TO.P,C19,2*%
%TO.N,GND*%
X158369000Y-136764400D03*
%TO.P,C19,1*%
%TO.N,VCC*%
X158369000Y-134264400D03*
%TD*%
%TO.P,C17,2*%
%TO.N,GND*%
X156184600Y-119044400D03*
%TO.P,C17,1*%
%TO.N,VCC*%
X156184600Y-121544400D03*
%TD*%
D11*
%TO.P,U5,14,VCC*%
%TO.N,VCC*%
X142707200Y-98115200D03*
%TO.P,U5,13*%
%TO.N,Net-(U3-Pad9)*%
X142707200Y-100655200D03*
%TO.P,U5,12*%
%TO.N,Net-(U1-Pad12)*%
X142707200Y-103195200D03*
%TO.P,U5,11*%
%TO.N,Net-(C13-Pad1)*%
X142707200Y-105735200D03*
%TO.P,U5,10*%
%TO.N,Net-(U3-Pad5)*%
X142707200Y-108275200D03*
%TO.P,U5,9*%
%TO.N,Net-(U1-Pad6)*%
X142707200Y-110815200D03*
%TO.P,U5,8*%
%TO.N,Net-(C12-Pad2)*%
X142707200Y-113355200D03*
%TO.P,U5,7,GND*%
%TO.N,GND*%
X135087200Y-113355200D03*
%TO.P,U5,6*%
%TO.N,Net-(C14-Pad1)*%
X135087200Y-110815200D03*
%TO.P,U5,5*%
%TO.N,Net-(U2-Pad9)*%
X135087200Y-108275200D03*
%TO.P,U5,4*%
%TO.N,Net-(U1-Pad10)*%
X135087200Y-105735200D03*
%TO.P,U5,3*%
%TO.N,Net-(C11-Pad2)*%
X135087200Y-103195200D03*
%TO.P,U5,2*%
%TO.N,Net-(U2-Pad5)*%
X135087200Y-100655200D03*
D10*
%TO.P,U5,1*%
%TO.N,Net-(U1-Pad8)*%
X135087200Y-98115200D03*
%TD*%
D15*
%TO.P,R6,2*%
%TO.N,GND*%
X125933200Y-104038400D03*
D14*
%TO.P,R6,1*%
%TO.N,Net-(C12-Pad1)*%
X125933200Y-96418400D03*
%TD*%
D16*
%TO.P,C8,2*%
%TO.N,GND*%
X104292400Y-112003200D03*
%TO.P,C8,1*%
%TO.N,Net-(C8-Pad1)*%
X104292400Y-114503200D03*
%TD*%
D15*
%TO.P,R2,2*%
%TO.N,Net-(C7-Pad1)*%
X152476200Y-132511800D03*
D14*
%TO.P,R2,1*%
%TO.N,Net-(R2-Pad1)*%
X152476200Y-140131800D03*
%TD*%
D16*
%TO.P,C3,2*%
%TO.N,GND*%
X107117200Y-141376400D03*
%TO.P,C3,1*%
%TO.N,Net-(C3-Pad1)*%
X104617200Y-141376400D03*
%TD*%
D22*
%TO.N,GND*%
X116687600Y-136194800D03*
X137820400Y-102819200D03*
X91897200Y-86969600D03*
X91897200Y-90551000D03*
X129743200Y-96393000D03*
X129743200Y-92252800D03*
X131826000Y-96393000D03*
X131826000Y-92252800D03*
%TO.N,Net-(C14-Pad2)*%
X122047512Y-114096800D03*
%TO.N,GND*%
X165430200Y-145186400D03*
X150723600Y-137439400D03*
X172923200Y-136042400D03*
X169164000Y-136093200D03*
X159791400Y-140589000D03*
X150190200Y-97485200D03*
X150139400Y-96088200D03*
X154457400Y-96443800D03*
X154508200Y-97586800D03*
X110642400Y-102133400D03*
X98907600Y-110363000D03*
X99339400Y-114198400D03*
X116738400Y-134950200D03*
X121869200Y-109804200D03*
X137820400Y-101523800D03*
%TO.N,VCC*%
X175336200Y-137541000D03*
X135483600Y-127660400D03*
%TO.N,Net-(U1-Pad8)*%
X154914600Y-131165600D03*
%TO.N,Net-(U6-Pad1)*%
X161950400Y-131648200D03*
%TO.N,Net-(U1-Pad10)*%
X140462000Y-104470200D03*
%TD*%
D23*
%TO.N,GND*%
X116687600Y-135001000D02*
X116738400Y-134950200D01*
X116687600Y-136194800D02*
X116687600Y-135001000D01*
X120136600Y-136194800D02*
X121945400Y-134386000D01*
X116687600Y-136194800D02*
X120136600Y-136194800D01*
%TO.N,VCC*%
X126329200Y-135143400D02*
X131409200Y-140223400D01*
X126329200Y-132603400D02*
X126329200Y-135143400D01*
D24*
X132948600Y-138684000D02*
X131409200Y-140223400D01*
X134949800Y-138684000D02*
X132948600Y-138684000D01*
X136489200Y-140223400D02*
X134949800Y-138684000D01*
%TO.N,Net-(C16-Pad2)*%
X114897689Y-136132089D02*
X114897689Y-128105689D01*
X119126000Y-140360400D02*
X114897689Y-136132089D01*
X122224800Y-140360400D02*
X119126000Y-140360400D01*
X123571000Y-141706600D02*
X122224800Y-140360400D01*
X137546000Y-141706600D02*
X123571000Y-141706600D01*
X139029200Y-140223400D02*
X137546000Y-141706600D01*
X155377200Y-115996400D02*
X155377200Y-113563400D01*
X147624800Y-126822200D02*
X153289000Y-121158000D01*
X140309600Y-131597400D02*
X145084800Y-126822200D01*
X139029200Y-135570200D02*
X140309600Y-134289800D01*
X140309600Y-134289800D02*
X140309600Y-131597400D01*
X153289000Y-121158000D02*
X153289000Y-118084600D01*
X139029200Y-140223400D02*
X139029200Y-135570200D01*
X145084800Y-126822200D02*
X147624800Y-126822200D01*
X153289000Y-118084600D02*
X155377200Y-115996400D01*
D23*
%TO.N,VCC*%
X131272200Y-127660400D02*
X126329200Y-132603400D01*
X135483600Y-127660400D02*
X131272200Y-127660400D01*
X122046600Y-136886000D02*
X126329200Y-132603400D01*
X121945400Y-136886000D02*
X122046600Y-136886000D01*
%TO.N,GND*%
X154457400Y-97536000D02*
X154508200Y-97586800D01*
X154457400Y-96443800D02*
X154457400Y-97536000D01*
X150139400Y-96088200D02*
X150139400Y-97434400D01*
X150139400Y-97434400D02*
X150190200Y-97485200D01*
X137820400Y-102819200D02*
X137820400Y-101523800D01*
X91897200Y-90551000D02*
X91897200Y-86969600D01*
X131826000Y-92252800D02*
X131826000Y-96393000D01*
X129743200Y-92252800D02*
X129743200Y-96393000D01*
X93091000Y-138689400D02*
X94406400Y-140004800D01*
X93091000Y-132969000D02*
X93091000Y-138689400D01*
X90967400Y-131821000D02*
X91943000Y-131821000D01*
X91943000Y-131821000D02*
X93091000Y-132969000D01*
X85989800Y-122896000D02*
X84963000Y-122896000D01*
X87350600Y-124256800D02*
X85989800Y-122896000D01*
X87350600Y-129641600D02*
X87350600Y-124256800D01*
X90967400Y-131821000D02*
X89530000Y-131821000D01*
X89530000Y-131821000D02*
X87350600Y-129641600D01*
X94406400Y-141879000D02*
X94406400Y-140004800D01*
X96799400Y-144272000D02*
X94406400Y-141879000D01*
X104221600Y-144272000D02*
X96799400Y-144272000D01*
X107117200Y-141376400D02*
X104221600Y-144272000D01*
D24*
%TO.N,Net-(C14-Pad2)*%
X122047512Y-114096800D02*
X126161800Y-109982513D01*
D23*
%TO.N,GND*%
X159791400Y-142875000D02*
X162102800Y-145186400D01*
X162102800Y-145186400D02*
X165430200Y-145186400D01*
X159791400Y-140589000D02*
X159791400Y-142875000D01*
X169214800Y-136042400D02*
X169164000Y-136093200D01*
X172923200Y-136042400D02*
X169214800Y-136042400D01*
X153035000Y-137439400D02*
X150723600Y-137439400D01*
X156210000Y-140614400D02*
X153035000Y-137439400D01*
X156794200Y-140589000D02*
X156768800Y-140614400D01*
X156768800Y-140614400D02*
X156210000Y-140614400D01*
X159791400Y-140589000D02*
X156794200Y-140589000D01*
X163296600Y-108356400D02*
X163296600Y-109722600D01*
X166751000Y-104902000D02*
X163296600Y-108356400D01*
X170637200Y-104902000D02*
X166751000Y-104902000D01*
X172034712Y-103504488D02*
X170637200Y-104902000D01*
X177266600Y-103504488D02*
X172034712Y-103504488D01*
X163296600Y-108280200D02*
X163296600Y-109722600D01*
X160731200Y-105765600D02*
X160782000Y-105765600D01*
X157556200Y-100558600D02*
X157556200Y-102590600D01*
X160782000Y-105765600D02*
X163296600Y-108280200D01*
X157556200Y-102590600D02*
X160731200Y-105765600D01*
X157505400Y-100507800D02*
X157556200Y-100558600D01*
X157429200Y-100507800D02*
X157505400Y-100507800D01*
X154508200Y-97586800D02*
X157429200Y-100507800D01*
X150291800Y-97586800D02*
X150190200Y-97485200D01*
X154508200Y-97586800D02*
X150291800Y-97586800D01*
X150672800Y-96697800D02*
X154203400Y-96697800D01*
X150672800Y-96621600D02*
X150672800Y-96697800D01*
X154203400Y-96697800D02*
X154457400Y-96443800D01*
X150139400Y-96088200D02*
X150672800Y-96621600D01*
X115336000Y-109804200D02*
X121869200Y-109804200D01*
X113532600Y-111607600D02*
X115336000Y-109804200D01*
X95611000Y-101580000D02*
X94081600Y-101580000D01*
X96164400Y-102133400D02*
X95611000Y-101580000D01*
X110642400Y-102133400D02*
X96164400Y-102133400D01*
X112069800Y-102133400D02*
X114676000Y-104739600D01*
X110642400Y-102133400D02*
X112069800Y-102133400D01*
X91897200Y-100787200D02*
X92690000Y-101580000D01*
X91897200Y-96672400D02*
X91897200Y-100787200D01*
X95097600Y-93472000D02*
X91897200Y-96672400D01*
X92690000Y-101580000D02*
X94081600Y-101580000D01*
X95097600Y-91922600D02*
X95097600Y-93472000D01*
X98907600Y-113766600D02*
X99339400Y-114198400D01*
X98907600Y-110363000D02*
X98907600Y-113766600D01*
X96235200Y-114198400D02*
X99339400Y-114198400D01*
X93923800Y-111887000D02*
X96235200Y-114198400D01*
X103338000Y-124216800D02*
X104673400Y-124216800D01*
X102184200Y-123063000D02*
X103338000Y-124216800D01*
X102184200Y-114111400D02*
X102184200Y-123063000D01*
X104292400Y-112003200D02*
X102184200Y-114111400D01*
X114717200Y-137551800D02*
X114717200Y-140284200D01*
X110601600Y-133436200D02*
X114717200Y-137551800D01*
X110601600Y-131770200D02*
X110601600Y-133436200D01*
X117302600Y-134386000D02*
X116738400Y-134950200D01*
X121945400Y-134386000D02*
X117302600Y-134386000D01*
X122402600Y-121580600D02*
X124556200Y-123734200D01*
X122402600Y-117043200D02*
X122402600Y-121580600D01*
X130713400Y-113355200D02*
X135087200Y-113355200D01*
X127025400Y-117043200D02*
X130713400Y-113355200D01*
X122402600Y-117043200D02*
X127025400Y-117043200D01*
X120015000Y-112369600D02*
X120015000Y-114655600D01*
X120015000Y-114655600D02*
X122402600Y-117043200D01*
X121869200Y-109804200D02*
X121869200Y-110515400D01*
X121869200Y-110515400D02*
X120015000Y-112369600D01*
X138856400Y-100487800D02*
X137820400Y-101523800D01*
X138856400Y-93243400D02*
X138856400Y-100487800D01*
%TO.N,VCC*%
X139547600Y-125450600D02*
X137337800Y-127660400D01*
X139547600Y-124434600D02*
X139547600Y-125450600D01*
X149174200Y-114808000D02*
X139547600Y-124434600D01*
X137337800Y-127660400D02*
X135483600Y-127660400D01*
X149174200Y-107238800D02*
X149174200Y-114808000D01*
D24*
%TO.N,VRST*%
X162315500Y-84836000D02*
X159537400Y-82057900D01*
X168478200Y-84836000D02*
X162315500Y-84836000D01*
X170129200Y-83185000D02*
X168478200Y-84836000D01*
X170129200Y-78994000D02*
X170129200Y-83185000D01*
X166928800Y-75793600D02*
X170129200Y-78994000D01*
X112369600Y-75793600D02*
X166928800Y-75793600D01*
X109347000Y-78816200D02*
X112369600Y-75793600D01*
X109347000Y-80594200D02*
X109347000Y-78816200D01*
X98500483Y-85369400D02*
X104571800Y-85369400D01*
X89433400Y-94436483D02*
X98500483Y-85369400D01*
X104571800Y-85369400D02*
X109347000Y-80594200D01*
X104516000Y-105999200D02*
X102489000Y-108026200D01*
X90906600Y-108026200D02*
X89433400Y-106553000D01*
X89433400Y-106553000D02*
X89433400Y-94436483D01*
X104516000Y-104739600D02*
X104516000Y-105999200D01*
X102489000Y-108026200D02*
X90906600Y-108026200D01*
D23*
%TO.N,VCC*%
X91160600Y-76682600D02*
X89126100Y-78717100D01*
X99542600Y-76682600D02*
X91160600Y-76682600D01*
X101006100Y-78146100D02*
X99542600Y-76682600D01*
X101006100Y-80069600D02*
X101006100Y-78146100D01*
X89126100Y-78717100D02*
X89126100Y-80069600D01*
X162864800Y-137541000D02*
X175336200Y-137541000D01*
X162077400Y-136626600D02*
X162077400Y-136753600D01*
X160070800Y-134620000D02*
X162077400Y-136626600D01*
X162077400Y-136753600D02*
X162864800Y-137541000D01*
X159715200Y-134264400D02*
X160070800Y-134620000D01*
X158369000Y-134264400D02*
X159715200Y-134264400D01*
X157724000Y-120005000D02*
X156184600Y-121544400D01*
X161818400Y-120005000D02*
X157724000Y-120005000D01*
D24*
X106136200Y-148422600D02*
X106136200Y-146939000D01*
X105308400Y-149250400D02*
X106136200Y-148422600D01*
X98171000Y-149250400D02*
X105308400Y-149250400D01*
X93522800Y-146928600D02*
X95849200Y-146928600D01*
X95849200Y-146928600D02*
X98171000Y-149250400D01*
D23*
X88696800Y-142748000D02*
X90982800Y-145034000D01*
X85852000Y-142748000D02*
X88696800Y-142748000D01*
X82245200Y-139141200D02*
X85852000Y-142748000D01*
X82245200Y-109194600D02*
X82245200Y-139141200D01*
X90982800Y-145034000D02*
X90982800Y-146928600D01*
X84480400Y-106959400D02*
X82245200Y-109194600D01*
X84480400Y-89001600D02*
X84480400Y-106959400D01*
X89126100Y-84355900D02*
X84480400Y-89001600D01*
X89126100Y-80069600D02*
X89126100Y-84355900D01*
X120040400Y-148717000D02*
X146837400Y-148717000D01*
X156362400Y-150774400D02*
X156860000Y-150276800D01*
X118059200Y-146735800D02*
X120040400Y-148717000D01*
X146837400Y-148717000D02*
X148894800Y-150774400D01*
X115265200Y-146735800D02*
X118059200Y-146735800D01*
X148894800Y-150774400D02*
X156362400Y-150774400D01*
X156860000Y-150276800D02*
X156860000Y-147736800D01*
D24*
%TO.N,Net-(U1-Pad8)*%
X156667200Y-126746000D02*
X158699200Y-124714000D01*
X158699200Y-124714000D02*
X162560000Y-124714000D01*
X163550600Y-126817200D02*
X164358400Y-127625000D01*
X156667200Y-129413000D02*
X156667200Y-126746000D01*
X154914600Y-131165600D02*
X156667200Y-129413000D01*
X162560000Y-124714000D02*
X163550600Y-125704600D01*
X163550600Y-125704600D02*
X163550600Y-126817200D01*
D23*
%TO.N,VCC*%
X98724400Y-94437200D02*
X94081600Y-99080000D01*
X103225600Y-94437200D02*
X98724400Y-94437200D01*
X107887520Y-89775280D02*
X103225600Y-94437200D01*
X149897080Y-89775280D02*
X107887520Y-89775280D01*
X160578800Y-100457000D02*
X149897080Y-89775280D01*
X160578800Y-102362000D02*
X160578800Y-100457000D01*
X149174200Y-104749600D02*
X149174200Y-107238800D01*
X144703800Y-94361000D02*
X144703800Y-100279200D01*
X143586200Y-93243400D02*
X144703800Y-94361000D01*
X144703800Y-100279200D02*
X149174200Y-104749600D01*
X141356400Y-93243400D02*
X143586200Y-93243400D01*
D24*
%TO.N,Net-(U6-Pad1)*%
X169621200Y-131648200D02*
X161950400Y-131648200D01*
X170688000Y-125806200D02*
X170688000Y-130581400D01*
X170688000Y-130581400D02*
X169621200Y-131648200D01*
X171978400Y-124515800D02*
X170688000Y-125806200D01*
X171978400Y-120005000D02*
X171978400Y-124515800D01*
%TO.N,Net-(U6-Pad5)*%
X161818400Y-129087800D02*
X161818400Y-127625000D01*
X159715200Y-131191000D02*
X161818400Y-129087800D01*
X157048200Y-131191000D02*
X159715200Y-131191000D01*
X155295600Y-132943600D02*
X157048200Y-131191000D01*
X155295600Y-136906000D02*
X155295600Y-132943600D01*
X157784800Y-139395200D02*
X155295600Y-136906000D01*
X170464400Y-139395200D02*
X157784800Y-139395200D01*
X172486400Y-141417200D02*
X170464400Y-139395200D01*
%TO.N,Net-(U6-Pad4)*%
X169946400Y-142362000D02*
X169946400Y-141417200D01*
X171907200Y-144322800D02*
X169946400Y-142362000D01*
X177571400Y-144322800D02*
X171907200Y-144322800D01*
X179882800Y-142011400D02*
X177571400Y-144322800D01*
X179882800Y-139217400D02*
X179882800Y-142011400D01*
X176225200Y-135559800D02*
X179882800Y-139217400D01*
X176225200Y-132588000D02*
X176225200Y-135559800D01*
X180365400Y-128447800D02*
X176225200Y-132588000D01*
X180365400Y-124434600D02*
X180365400Y-128447800D01*
X179451000Y-123520200D02*
X180365400Y-124434600D01*
X178033600Y-123520200D02*
X179451000Y-123520200D01*
X174518400Y-120005000D02*
X178033600Y-123520200D01*
D23*
%TO.N,VCC*%
X168462800Y-108595000D02*
X168462800Y-107178000D01*
X170637200Y-110769400D02*
X168462800Y-108595000D01*
X176082800Y-112252600D02*
X174599600Y-110769400D01*
X176082800Y-114798000D02*
X176082800Y-112252600D01*
X174599600Y-110769400D02*
X170637200Y-110769400D01*
X168341200Y-107178000D02*
X163296600Y-112222600D01*
X168462800Y-107178000D02*
X168341200Y-107178000D01*
D24*
%TO.N,Net-(U2-Pad5)*%
X136403000Y-100655200D02*
X135087200Y-100655200D01*
X137236200Y-99822000D02*
X136403000Y-100655200D01*
X137236200Y-96266000D02*
X137236200Y-99822000D01*
X134924800Y-93954600D02*
X137236200Y-96266000D01*
X134924800Y-91744800D02*
X134924800Y-93954600D01*
X136194800Y-90474800D02*
X134924800Y-91744800D01*
X146050000Y-93268800D02*
X143256000Y-90474800D01*
X146050000Y-99542600D02*
X146050000Y-93268800D01*
X150672800Y-104165400D02*
X146050000Y-99542600D01*
X157911800Y-104165400D02*
X150672800Y-104165400D01*
X158826200Y-113665000D02*
X158826200Y-105079800D01*
X154152600Y-118338600D02*
X158826200Y-113665000D01*
X155422600Y-124104400D02*
X154152600Y-122834400D01*
X155422600Y-128625600D02*
X155422600Y-124104400D01*
X154025600Y-130022600D02*
X155422600Y-128625600D01*
X143256000Y-90474800D02*
X136194800Y-90474800D01*
X151968200Y-130022600D02*
X154025600Y-130022600D01*
X148742400Y-133248400D02*
X151968200Y-130022600D01*
X148742400Y-139573000D02*
X148742400Y-133248400D01*
X145872200Y-142443200D02*
X148742400Y-139573000D01*
X154152600Y-122834400D02*
X154152600Y-118338600D01*
X158826200Y-105079800D02*
X157911800Y-104165400D01*
X109651800Y-140690600D02*
X111404400Y-142443200D01*
X109651800Y-137820400D02*
X109651800Y-140690600D01*
X107035600Y-135204200D02*
X109651800Y-137820400D01*
X111404400Y-142443200D02*
X145872200Y-142443200D01*
X94767400Y-135204200D02*
X107035600Y-135204200D01*
X94259400Y-134696200D02*
X94767400Y-135204200D01*
X94259400Y-130033000D02*
X94259400Y-134696200D01*
X90967400Y-126741000D02*
X94259400Y-130033000D01*
%TO.N,Net-(U2-Pad9)*%
X110495000Y-108275200D02*
X135087200Y-108275200D01*
X108508800Y-110261400D02*
X110495000Y-108275200D01*
X108508800Y-119329200D02*
X108508800Y-110261400D01*
X106578400Y-121259600D02*
X108508800Y-119329200D01*
X106578400Y-130632200D02*
X106578400Y-121259600D01*
X102539800Y-134670800D02*
X106578400Y-130632200D01*
X96951800Y-134670800D02*
X102539800Y-134670800D01*
X96215200Y-133934200D02*
X96951800Y-134670800D01*
X96215200Y-131653200D02*
X96215200Y-133934200D01*
X98587400Y-129281000D02*
X96215200Y-131653200D01*
%TO.N,Net-(U1-Pad4)*%
X99598400Y-131821000D02*
X98587400Y-131821000D01*
X100965000Y-130454400D02*
X99598400Y-131821000D01*
X100965000Y-111810800D02*
X100965000Y-130454400D01*
X102539800Y-110236000D02*
X100965000Y-111810800D01*
X104571800Y-110236000D02*
X102539800Y-110236000D01*
X107111800Y-107696000D02*
X104571800Y-110236000D01*
X107056000Y-107640200D02*
X107111800Y-107696000D01*
X107056000Y-104739600D02*
X107056000Y-107640200D01*
%TO.N,Net-(U1-Pad2)*%
X89809400Y-129281000D02*
X90967400Y-129281000D01*
X88493600Y-127965200D02*
X89809400Y-129281000D01*
X93167200Y-109220000D02*
X88493600Y-113893600D01*
X103454200Y-109220000D02*
X93167200Y-109220000D01*
X105714800Y-106959400D02*
X103454200Y-109220000D01*
X105714800Y-103809800D02*
X105714800Y-106959400D01*
X105156000Y-103251000D02*
X105714800Y-103809800D01*
X103464600Y-103251000D02*
X105156000Y-103251000D01*
X101976000Y-104739600D02*
X103464600Y-103251000D01*
X88493600Y-113893600D02*
X88493600Y-127965200D01*
%TO.N,GVID*%
X167406400Y-142717600D02*
X167406400Y-141417200D01*
X169773600Y-145084800D02*
X167406400Y-142717600D01*
X183184800Y-140055600D02*
X178155600Y-145084800D01*
X183184800Y-91313000D02*
X183184800Y-140055600D01*
X178358800Y-86487000D02*
X183184800Y-91313000D01*
X178155600Y-145084800D02*
X169773600Y-145084800D01*
X156346500Y-86487000D02*
X178358800Y-86487000D01*
X151917400Y-82057900D02*
X156346500Y-86487000D01*
%TO.N,HRST*%
X99436000Y-105288000D02*
X99436000Y-104739600D01*
X98501200Y-106222800D02*
X99436000Y-105288000D01*
X92659200Y-106222800D02*
X98501200Y-106222800D01*
X90220800Y-103784400D02*
X92659200Y-106222800D01*
X90220800Y-94284800D02*
X90220800Y-103784400D01*
X97409000Y-87096600D02*
X90220800Y-94284800D01*
X116398700Y-87096600D02*
X97409000Y-87096600D01*
X121437400Y-82057900D02*
X116398700Y-87096600D01*
%TO.N,1V*%
X116357400Y-78308200D02*
X116357400Y-79517900D01*
X117729000Y-76936600D02*
X116357400Y-78308200D01*
X121361200Y-76936600D02*
X117729000Y-76936600D01*
X122802889Y-78378289D02*
X121361200Y-76936600D01*
X125222000Y-87960200D02*
X122802889Y-85541089D01*
X156184600Y-87960200D02*
X125222000Y-87960200D01*
X156616400Y-88392000D02*
X156184600Y-87960200D01*
X122802889Y-85541089D02*
X122802889Y-78378289D01*
X156616400Y-88509000D02*
X156616400Y-88392000D01*
X161838400Y-93731000D02*
X156616400Y-88509000D01*
%TO.N,AUDIN*%
X137668000Y-87376000D02*
X134137400Y-83845400D01*
X177927000Y-87376000D02*
X137668000Y-87376000D01*
X182448200Y-91897200D02*
X177927000Y-87376000D01*
X182448200Y-128915400D02*
X182448200Y-91897200D01*
X134137400Y-83845400D02*
X134137400Y-82057900D01*
X177566400Y-133797200D02*
X182448200Y-128915400D01*
%TO.N,Net-(C2-Pad1)*%
X107518200Y-132283200D02*
X107518200Y-124693600D01*
X112217200Y-136982200D02*
X107518200Y-132283200D01*
X107518200Y-124693600D02*
X110601600Y-121610200D01*
X112217200Y-140284200D02*
X112217200Y-136982200D01*
%TO.N,Net-(C16-Pad1)*%
X152877200Y-111155800D02*
X156794200Y-107238800D01*
X152877200Y-113563400D02*
X152877200Y-111155800D01*
%TO.N,Net-(C16-Pad2)*%
X114897689Y-128105689D02*
X115659689Y-128105689D01*
X109512889Y-128105689D02*
X114897689Y-128105689D01*
X116794200Y-128117600D02*
X118221600Y-126690200D01*
X115659689Y-128105689D02*
X115671600Y-128117600D01*
X115671600Y-128117600D02*
X116794200Y-128117600D01*
X108915200Y-127508000D02*
X109512889Y-128105689D01*
X110601600Y-124150200D02*
X108915200Y-125836600D01*
X108915200Y-125836600D02*
X108915200Y-127508000D01*
X93507400Y-126741000D02*
X90967400Y-124201000D01*
X98587400Y-126741000D02*
X93507400Y-126741000D01*
%TO.N,Net-(U1-Pad10)*%
X139197000Y-105735200D02*
X135087200Y-105735200D01*
X140462000Y-104470200D02*
X139197000Y-105735200D01*
%TO.N,Net-(U1-Pad8)*%
X115671600Y-98115200D02*
X114676000Y-97119600D01*
X135087200Y-98115200D02*
X115671600Y-98115200D01*
%TO.N,Net-(U1-Pad10)*%
X109596000Y-99004200D02*
X109596000Y-97119600D01*
X111480600Y-100888800D02*
X109596000Y-99004200D01*
X128498600Y-100888800D02*
X111480600Y-100888800D01*
X133345000Y-105735200D02*
X128498600Y-100888800D01*
X135087200Y-105735200D02*
X133345000Y-105735200D01*
%TO.N,Net-(U3-Pad9)*%
X129235200Y-124993400D02*
X124998400Y-129230200D01*
X129235200Y-122453400D02*
X129235200Y-124993400D01*
X130886200Y-120802400D02*
X129235200Y-122453400D01*
X140081000Y-120802400D02*
X130886200Y-120802400D01*
X124998400Y-129230200D02*
X118221600Y-129230200D01*
X144721520Y-116161880D02*
X140081000Y-120802400D01*
X144721520Y-102669520D02*
X144721520Y-116161880D01*
X142707200Y-100655200D02*
X144721520Y-102669520D01*
%TO.N,Net-(U1-Pad6)*%
X114547089Y-107150689D02*
X112136000Y-104739600D01*
X144272000Y-107543600D02*
X143879089Y-107150689D01*
X144272000Y-109250400D02*
X144272000Y-107543600D01*
X143879089Y-107150689D02*
X114547089Y-107150689D01*
X142707200Y-110815200D02*
X144272000Y-109250400D01*
%TO.N,Net-(U3-Pad5)*%
X114457400Y-126690200D02*
X110601600Y-126690200D01*
X115581911Y-125565689D02*
X114457400Y-126690200D01*
X127570711Y-125565689D02*
X115581911Y-125565689D01*
X128625600Y-121793000D02*
X128625600Y-124510800D01*
X128625600Y-124510800D02*
X127570711Y-125565689D01*
X130581400Y-119837200D02*
X128625600Y-121793000D01*
X137896600Y-116052600D02*
X134112000Y-119837200D01*
X137896600Y-113085800D02*
X137896600Y-116052600D01*
X134112000Y-119837200D02*
X130581400Y-119837200D01*
X142707200Y-108275200D02*
X137896600Y-113085800D01*
%TD*%
M02*
