M48
; DRILL file {KiCad (6.0.5)} date Sun Feb  2 15:21:18 2025
; FORMAT={-:-/ absolute / metric / decimal}
; #@! TF.CreationDate,2025-02-02T15:21:18-05:00
; #@! TF.GenerationSoftware,Kicad,Pcbnew,(6.0.5)
; #@! TF.FileFunction,Plated,1,2,PTH
FMAT,2
METRIC
; #@! TA.AperFunction,Plated,PTH,ViaDrill
T1C0.400
; #@! TA.AperFunction,Plated,PTH,ComponentDrill
T2C0.700
; #@! TA.AperFunction,Plated,PTH,ComponentDrill
T3C0.800
; #@! TA.AperFunction,Plated,PTH,ComponentDrill
T4C1.000
; #@! TA.AperFunction,Plated,PTH,ComponentDrill
T5C1.100
; #@! TA.AperFunction,Plated,PTH,ComponentDrill
T6C1.700
%
G90
G05
T1
X91.897Y-86.97
X91.897Y-90.551
X98.908Y-110.363
X99.339Y-114.198
X110.642Y-102.133
X116.688Y-136.195
X116.738Y-134.95
X121.869Y-109.804
X122.048Y-114.097
X129.743Y-92.253
X129.743Y-96.393
X131.826Y-92.253
X131.826Y-96.393
X135.484Y-127.66
X137.82Y-101.524
X137.82Y-102.819
X140.462Y-104.47
X150.139Y-96.088
X150.19Y-97.485
X150.724Y-137.439
X154.457Y-96.444
X154.508Y-97.587
X154.915Y-131.166
X159.791Y-140.589
X161.95Y-131.648
X165.43Y-145.186
X169.164Y-136.093
X172.923Y-136.042
X175.336Y-137.541
T2
X85.217Y-128.956
X85.217Y-136.576
X87.249Y-93.167
X87.249Y-100.787
X95.098Y-91.923
X102.718Y-91.923
X104.191Y-129.794
X104.191Y-137.414
X109.499Y-91.923
X115.265Y-146.736
X117.119Y-91.923
X122.885Y-146.736
X125.933Y-96.418
X125.933Y-104.038
X140.868Y-146.99
X148.488Y-146.99
X150.47Y-127.686
X152.476Y-132.512
X152.476Y-140.132
X158.09Y-127.686
X160.579Y-102.362
X168.199Y-102.362
T3
X84.963Y-120.396
X84.963Y-122.896
X85.319Y-109.189
X85.319Y-111.689
X90.967Y-116.581
X90.967Y-119.121
X90.967Y-121.661
X90.967Y-124.201
X90.967Y-126.741
X90.967Y-129.281
X90.967Y-131.821
X93.924Y-111.887
X94.082Y-99.08
X94.082Y-101.58
X94.406Y-140.005
X96.424Y-111.887
X96.906Y-140.005
X98.587Y-116.581
X98.587Y-119.121
X98.587Y-121.661
X98.587Y-124.201
X98.587Y-126.741
X98.587Y-129.281
X98.587Y-131.821
X99.436Y-97.12
X99.436Y-104.74
X101.976Y-97.12
X101.976Y-104.74
X104.292Y-112.003
X104.292Y-114.503
X104.516Y-97.12
X104.516Y-104.74
X104.617Y-141.376
X104.673Y-121.717
X104.673Y-124.217
X107.056Y-97.12
X107.056Y-104.74
X107.117Y-141.376
X109.596Y-97.12
X109.596Y-104.74
X110.602Y-116.53
X110.602Y-119.07
X110.602Y-121.61
X110.602Y-124.15
X110.602Y-126.69
X110.602Y-129.23
X110.602Y-131.77
X112.136Y-97.12
X112.136Y-104.74
X112.217Y-140.284
X113.533Y-111.608
X114.676Y-97.12
X114.676Y-104.74
X114.717Y-140.284
X116.033Y-111.608
X118.222Y-116.53
X118.222Y-119.07
X118.222Y-121.61
X118.222Y-124.15
X118.222Y-126.69
X118.222Y-129.23
X118.222Y-131.77
X121.945Y-134.386
X121.945Y-136.886
X124.556Y-121.234
X124.556Y-123.734
X126.162Y-109.983
X126.162Y-112.483
X126.329Y-132.603
X126.329Y-140.223
X128.869Y-132.603
X128.869Y-140.223
X131.409Y-132.603
X131.409Y-140.223
X133.949Y-132.603
X133.949Y-140.223
X134.64Y-123.292
X135.087Y-98.115
X135.087Y-100.655
X135.087Y-103.195
X135.087Y-105.735
X135.087Y-108.275
X135.087Y-110.815
X135.087Y-113.355
X136.489Y-132.603
X136.489Y-140.223
X137.14Y-123.292
X138.856Y-93.243
X139.029Y-132.603
X139.029Y-140.223
X141.356Y-93.243
X141.569Y-132.603
X141.569Y-140.223
X142.707Y-98.115
X142.707Y-100.655
X142.707Y-103.195
X142.707Y-105.735
X142.707Y-108.275
X142.707Y-110.815
X142.707Y-113.355
X144.109Y-132.603
X144.109Y-140.223
X144.851Y-123.165
X147.351Y-123.165
X149.174Y-107.239
X152.877Y-113.563
X152.959Y-99.619
X152.959Y-102.119
X155.377Y-113.563
X156.185Y-119.044
X156.185Y-121.544
X156.794Y-107.239
X158.369Y-134.264
X158.369Y-136.764
X161.818Y-120.005
X161.818Y-127.625
X162.326Y-133.797
X162.326Y-141.417
X163.297Y-109.723
X163.297Y-112.223
X164.358Y-120.005
X164.358Y-127.625
X164.866Y-133.797
X164.866Y-141.417
X166.898Y-120.005
X166.898Y-127.625
X167.406Y-133.797
X167.406Y-141.417
X168.463Y-107.178
X168.463Y-114.798
X169.438Y-120.005
X169.438Y-127.625
X169.946Y-133.797
X169.946Y-141.417
X171.003Y-107.178
X171.003Y-114.798
X171.978Y-120.005
X171.978Y-127.625
X172.486Y-133.797
X172.486Y-141.417
X173.543Y-107.178
X173.543Y-114.798
X174.518Y-120.005
X174.518Y-127.625
X175.026Y-133.797
X175.026Y-141.417
X176.083Y-107.178
X176.083Y-114.798
X177.058Y-120.005
X177.058Y-127.625
X177.267Y-101.004
X177.267Y-103.504
X177.566Y-133.797
X177.566Y-141.417
T4
X88.443Y-146.929
X90.983Y-146.929
X93.523Y-146.929
X101.056Y-146.939
X103.596Y-146.939
X106.136Y-146.939
X116.357Y-79.518
X116.357Y-82.058
X118.897Y-79.518
X118.897Y-82.058
X121.437Y-79.518
X121.437Y-82.058
X123.977Y-79.518
X123.977Y-82.058
X126.517Y-79.518
X126.517Y-82.058
X129.057Y-79.518
X129.057Y-82.058
X131.597Y-79.518
X131.597Y-82.058
X134.137Y-79.518
X134.137Y-82.058
X136.677Y-79.518
X136.677Y-82.058
X139.217Y-79.518
X139.217Y-82.058
X141.757Y-79.518
X141.757Y-82.058
X144.297Y-79.518
X144.297Y-82.058
X146.837Y-79.518
X146.837Y-82.058
X149.377Y-79.518
X149.377Y-82.058
X151.917Y-79.518
X151.917Y-82.058
X154.32Y-147.737
X154.457Y-79.518
X154.457Y-82.058
X156.86Y-147.737
X156.997Y-79.518
X156.997Y-82.058
X159.4Y-147.737
X159.537Y-79.518
X159.537Y-82.058
X161.838Y-93.731
X161.838Y-96.271
X162.077Y-79.518
X162.077Y-82.058
X164.378Y-93.731
X164.378Y-96.271
X164.617Y-79.518
X164.617Y-82.058
X166.918Y-93.731
X166.918Y-96.271
X167.97Y-147.625
X169.458Y-93.731
X169.458Y-96.271
X170.51Y-147.625
X171.998Y-93.731
X171.998Y-96.271
X173.05Y-147.625
X174.538Y-93.731
X174.538Y-96.271
X177.078Y-93.731
X177.078Y-96.271
X179.618Y-93.731
X179.618Y-96.271
T5
X129.236Y-146.111
X129.236Y-150.611
X135.736Y-146.111
X135.736Y-150.611
T6
X89.126Y-80.07
X93.086Y-80.07
X97.046Y-80.07
X101.006Y-80.07
T0
M30
